<mxfile host="app.diagrams.net" agent="Mozilla/5.0 (X11; Ubuntu; Linux x86_64; rv:132.0) Gecko/20100101 Firefox/132.0" version="26.0.9" pages="11">
  <diagram name="lezione3esercizio5" id="sgSI3vNpfRAOQs9xrQIf">
    <mxGraphModel dx="1126" dy="1529" grid="1" gridSize="10" guides="1" tooltips="1" connect="1" arrows="1" fold="1" page="1" pageScale="1" pageWidth="850" pageHeight="1100" math="0" shadow="0">
      <root>
        <mxCell id="0" />
        <mxCell id="1" parent="0" />
        <mxCell id="mw4MY1gdxsXPG8gL_zma-4" value="" style="edgeStyle=orthogonalEdgeStyle;rounded=0;orthogonalLoop=1;jettySize=auto;html=1;" edge="1" parent="1" source="mw4MY1gdxsXPG8gL_zma-2" target="mw4MY1gdxsXPG8gL_zma-3">
          <mxGeometry relative="1" as="geometry" />
        </mxCell>
        <mxCell id="mw4MY1gdxsXPG8gL_zma-2" value="start" style="ellipse;whiteSpace=wrap;html=1;" vertex="1" parent="1">
          <mxGeometry x="360" y="-770" width="120" height="80" as="geometry" />
        </mxCell>
        <mxCell id="mw4MY1gdxsXPG8gL_zma-20" value="" style="edgeStyle=orthogonalEdgeStyle;rounded=0;orthogonalLoop=1;jettySize=auto;html=1;" edge="1" parent="1" source="mw4MY1gdxsXPG8gL_zma-3" target="mw4MY1gdxsXPG8gL_zma-19">
          <mxGeometry relative="1" as="geometry" />
        </mxCell>
        <mxCell id="mw4MY1gdxsXPG8gL_zma-3" value="read n" style="shape=parallelogram;perimeter=parallelogramPerimeter;whiteSpace=wrap;html=1;fixedSize=1;" vertex="1" parent="1">
          <mxGeometry x="360" y="-660" width="120" height="60" as="geometry" />
        </mxCell>
        <mxCell id="mw4MY1gdxsXPG8gL_zma-13" value="" style="edgeStyle=orthogonalEdgeStyle;rounded=0;orthogonalLoop=1;jettySize=auto;html=1;" edge="1" parent="1" source="mw4MY1gdxsXPG8gL_zma-5" target="mw4MY1gdxsXPG8gL_zma-12">
          <mxGeometry relative="1" as="geometry" />
        </mxCell>
        <mxCell id="mw4MY1gdxsXPG8gL_zma-16" value="false" style="edgeLabel;html=1;align=center;verticalAlign=middle;resizable=0;points=[];" vertex="1" connectable="0" parent="mw4MY1gdxsXPG8gL_zma-13">
          <mxGeometry x="-0.0857" relative="1" as="geometry">
            <mxPoint as="offset" />
          </mxGeometry>
        </mxCell>
        <mxCell id="mw4MY1gdxsXPG8gL_zma-23" value="" style="edgeStyle=orthogonalEdgeStyle;rounded=0;orthogonalLoop=1;jettySize=auto;html=1;entryX=0.5;entryY=0;entryDx=0;entryDy=0;" edge="1" parent="1" source="mw4MY1gdxsXPG8gL_zma-5" target="mw4MY1gdxsXPG8gL_zma-22">
          <mxGeometry relative="1" as="geometry" />
        </mxCell>
        <mxCell id="mw4MY1gdxsXPG8gL_zma-44" value="true" style="edgeLabel;html=1;align=center;verticalAlign=middle;resizable=0;points=[];" vertex="1" connectable="0" parent="mw4MY1gdxsXPG8gL_zma-23">
          <mxGeometry x="-0.2375" relative="1" as="geometry">
            <mxPoint as="offset" />
          </mxGeometry>
        </mxCell>
        <mxCell id="mw4MY1gdxsXPG8gL_zma-5" value="&lt;div&gt;n &amp;gt; 0&lt;/div&gt;&lt;div&gt;and&lt;/div&gt;&lt;div&gt;n%1==0&lt;br&gt;&lt;/div&gt;" style="rhombus;whiteSpace=wrap;html=1;" vertex="1" parent="1">
          <mxGeometry x="380" y="-400" width="80" height="80" as="geometry" />
        </mxCell>
        <mxCell id="mw4MY1gdxsXPG8gL_zma-48" value="" style="edgeStyle=orthogonalEdgeStyle;rounded=0;orthogonalLoop=1;jettySize=auto;html=1;" edge="1" parent="1" source="mw4MY1gdxsXPG8gL_zma-12" target="mw4MY1gdxsXPG8gL_zma-47">
          <mxGeometry relative="1" as="geometry" />
        </mxCell>
        <mxCell id="mw4MY1gdxsXPG8gL_zma-12" value="write &quot;Errore&quot;" style="shape=parallelogram;perimeter=parallelogramPerimeter;whiteSpace=wrap;html=1;fixedSize=1;" vertex="1" parent="1">
          <mxGeometry x="200" y="-390" width="120" height="60" as="geometry" />
        </mxCell>
        <mxCell id="mw4MY1gdxsXPG8gL_zma-29" value="" style="edgeStyle=orthogonalEdgeStyle;rounded=0;orthogonalLoop=1;jettySize=auto;html=1;" edge="1" parent="1" source="mw4MY1gdxsXPG8gL_zma-19" target="mw4MY1gdxsXPG8gL_zma-28">
          <mxGeometry relative="1" as="geometry" />
        </mxCell>
        <mxCell id="mw4MY1gdxsXPG8gL_zma-19" value="cont=1" style="whiteSpace=wrap;html=1;" vertex="1" parent="1">
          <mxGeometry x="360" y="-570" width="120" height="60" as="geometry" />
        </mxCell>
        <mxCell id="mw4MY1gdxsXPG8gL_zma-25" value="" style="edgeStyle=orthogonalEdgeStyle;rounded=0;orthogonalLoop=1;jettySize=auto;html=1;" edge="1" parent="1" source="mw4MY1gdxsXPG8gL_zma-22" target="mw4MY1gdxsXPG8gL_zma-24">
          <mxGeometry relative="1" as="geometry" />
        </mxCell>
        <mxCell id="mw4MY1gdxsXPG8gL_zma-45" value="true" style="edgeLabel;html=1;align=center;verticalAlign=middle;resizable=0;points=[];" vertex="1" connectable="0" parent="mw4MY1gdxsXPG8gL_zma-25">
          <mxGeometry x="-0.68" y="1" relative="1" as="geometry">
            <mxPoint as="offset" />
          </mxGeometry>
        </mxCell>
        <mxCell id="mw4MY1gdxsXPG8gL_zma-41" value="" style="edgeStyle=orthogonalEdgeStyle;rounded=0;orthogonalLoop=1;jettySize=auto;html=1;" edge="1" parent="1" source="mw4MY1gdxsXPG8gL_zma-22" target="mw4MY1gdxsXPG8gL_zma-40">
          <mxGeometry relative="1" as="geometry" />
        </mxCell>
        <mxCell id="mw4MY1gdxsXPG8gL_zma-46" value="false" style="edgeLabel;html=1;align=center;verticalAlign=middle;resizable=0;points=[];" vertex="1" connectable="0" parent="mw4MY1gdxsXPG8gL_zma-41">
          <mxGeometry x="-0.1143" y="-2" relative="1" as="geometry">
            <mxPoint as="offset" />
          </mxGeometry>
        </mxCell>
        <mxCell id="mw4MY1gdxsXPG8gL_zma-22" value="cont &amp;lt;= n" style="rhombus;whiteSpace=wrap;html=1;" vertex="1" parent="1">
          <mxGeometry x="540" y="-320" width="80" height="80" as="geometry" />
        </mxCell>
        <mxCell id="mw4MY1gdxsXPG8gL_zma-32" value="" style="edgeStyle=orthogonalEdgeStyle;rounded=0;orthogonalLoop=1;jettySize=auto;html=1;" edge="1" parent="1" source="mw4MY1gdxsXPG8gL_zma-24" target="mw4MY1gdxsXPG8gL_zma-31">
          <mxGeometry relative="1" as="geometry" />
        </mxCell>
        <mxCell id="mw4MY1gdxsXPG8gL_zma-24" value="ris=ris+(cont*cont)" style="whiteSpace=wrap;html=1;" vertex="1" parent="1">
          <mxGeometry x="520" y="-210" width="120" height="60" as="geometry" />
        </mxCell>
        <mxCell id="mw4MY1gdxsXPG8gL_zma-30" value="" style="edgeStyle=orthogonalEdgeStyle;rounded=0;orthogonalLoop=1;jettySize=auto;html=1;" edge="1" parent="1" source="mw4MY1gdxsXPG8gL_zma-28" target="mw4MY1gdxsXPG8gL_zma-5">
          <mxGeometry relative="1" as="geometry" />
        </mxCell>
        <mxCell id="mw4MY1gdxsXPG8gL_zma-28" value="ris = 0" style="rounded=0;whiteSpace=wrap;html=1;" vertex="1" parent="1">
          <mxGeometry x="360" y="-480" width="120" height="60" as="geometry" />
        </mxCell>
        <mxCell id="mw4MY1gdxsXPG8gL_zma-34" value="" style="edgeStyle=orthogonalEdgeStyle;rounded=0;orthogonalLoop=1;jettySize=auto;html=1;" edge="1" parent="1" source="mw4MY1gdxsXPG8gL_zma-31" target="mw4MY1gdxsXPG8gL_zma-33">
          <mxGeometry relative="1" as="geometry" />
        </mxCell>
        <mxCell id="mw4MY1gdxsXPG8gL_zma-31" value="cont += 1" style="whiteSpace=wrap;html=1;" vertex="1" parent="1">
          <mxGeometry x="520" y="-120" width="120" height="60" as="geometry" />
        </mxCell>
        <mxCell id="mw4MY1gdxsXPG8gL_zma-36" value="" style="edgeStyle=orthogonalEdgeStyle;rounded=0;orthogonalLoop=1;jettySize=auto;html=1;" edge="1" parent="1" source="mw4MY1gdxsXPG8gL_zma-33" target="mw4MY1gdxsXPG8gL_zma-35">
          <mxGeometry relative="1" as="geometry" />
        </mxCell>
        <mxCell id="mw4MY1gdxsXPG8gL_zma-33" value="" style="shape=waypoint;sketch=0;size=6;pointerEvents=1;points=[];fillColor=default;resizable=0;rotatable=0;perimeter=centerPerimeter;snapToPoint=1;" vertex="1" parent="1">
          <mxGeometry x="570" y="-10" width="20" height="20" as="geometry" />
        </mxCell>
        <mxCell id="mw4MY1gdxsXPG8gL_zma-38" value="" style="edgeStyle=orthogonalEdgeStyle;rounded=0;orthogonalLoop=1;jettySize=auto;html=1;" edge="1" parent="1" source="mw4MY1gdxsXPG8gL_zma-35" target="mw4MY1gdxsXPG8gL_zma-37">
          <mxGeometry relative="1" as="geometry" />
        </mxCell>
        <mxCell id="mw4MY1gdxsXPG8gL_zma-35" value="" style="shape=waypoint;sketch=0;size=6;pointerEvents=1;points=[];fillColor=default;resizable=0;rotatable=0;perimeter=centerPerimeter;snapToPoint=1;" vertex="1" parent="1">
          <mxGeometry x="470" y="-10" width="20" height="20" as="geometry" />
        </mxCell>
        <mxCell id="mw4MY1gdxsXPG8gL_zma-39" value="" style="edgeStyle=orthogonalEdgeStyle;rounded=0;orthogonalLoop=1;jettySize=auto;html=1;" edge="1" parent="1" source="mw4MY1gdxsXPG8gL_zma-37" target="mw4MY1gdxsXPG8gL_zma-22">
          <mxGeometry relative="1" as="geometry" />
        </mxCell>
        <mxCell id="mw4MY1gdxsXPG8gL_zma-37" value="" style="shape=waypoint;sketch=0;size=6;pointerEvents=1;points=[];fillColor=default;resizable=0;rotatable=0;perimeter=centerPerimeter;snapToPoint=1;" vertex="1" parent="1">
          <mxGeometry x="470" y="-290" width="20" height="20" as="geometry" />
        </mxCell>
        <mxCell id="mw4MY1gdxsXPG8gL_zma-43" value="" style="edgeStyle=orthogonalEdgeStyle;rounded=0;orthogonalLoop=1;jettySize=auto;html=1;" edge="1" parent="1" source="mw4MY1gdxsXPG8gL_zma-40" target="mw4MY1gdxsXPG8gL_zma-42">
          <mxGeometry relative="1" as="geometry" />
        </mxCell>
        <mxCell id="mw4MY1gdxsXPG8gL_zma-40" value="write ris" style="shape=parallelogram;perimeter=parallelogramPerimeter;whiteSpace=wrap;html=1;fixedSize=1;" vertex="1" parent="1">
          <mxGeometry x="680" y="-310" width="120" height="60" as="geometry" />
        </mxCell>
        <mxCell id="mw4MY1gdxsXPG8gL_zma-42" value="end" style="ellipse;whiteSpace=wrap;html=1;" vertex="1" parent="1">
          <mxGeometry x="700" y="-180" width="80" height="80" as="geometry" />
        </mxCell>
        <mxCell id="mw4MY1gdxsXPG8gL_zma-50" value="" style="edgeStyle=orthogonalEdgeStyle;rounded=0;orthogonalLoop=1;jettySize=auto;html=1;" edge="1" parent="1" source="mw4MY1gdxsXPG8gL_zma-47" target="mw4MY1gdxsXPG8gL_zma-42">
          <mxGeometry relative="1" as="geometry">
            <mxPoint x="740" y="-100" as="targetPoint" />
          </mxGeometry>
        </mxCell>
        <mxCell id="mw4MY1gdxsXPG8gL_zma-47" value="" style="shape=waypoint;sketch=0;size=6;pointerEvents=1;points=[];fillColor=default;resizable=0;rotatable=0;perimeter=centerPerimeter;snapToPoint=1;" vertex="1" parent="1">
          <mxGeometry x="250" y="30" width="20" height="20" as="geometry" />
        </mxCell>
      </root>
    </mxGraphModel>
  </diagram>
  <diagram id="2eVN8S8YK88xv0mitT1E" name="lezione3esercizio6">
    <mxGraphModel dx="4583" dy="2271" grid="1" gridSize="10" guides="1" tooltips="1" connect="1" arrows="1" fold="1" page="1" pageScale="1" pageWidth="850" pageHeight="1100" math="0" shadow="0">
      <root>
        <mxCell id="0" />
        <mxCell id="1" parent="0" />
        <mxCell id="A9Gm3I3LBpf3RbzOhqfh-3" value="" style="edgeStyle=orthogonalEdgeStyle;rounded=0;orthogonalLoop=1;jettySize=auto;html=1;" edge="1" parent="1" source="A9Gm3I3LBpf3RbzOhqfh-1" target="A9Gm3I3LBpf3RbzOhqfh-2">
          <mxGeometry relative="1" as="geometry" />
        </mxCell>
        <mxCell id="A9Gm3I3LBpf3RbzOhqfh-1" value="start" style="ellipse;whiteSpace=wrap;html=1;" vertex="1" parent="1">
          <mxGeometry x="360" y="20" width="120" height="80" as="geometry" />
        </mxCell>
        <mxCell id="A9Gm3I3LBpf3RbzOhqfh-9" value="" style="edgeStyle=orthogonalEdgeStyle;rounded=0;orthogonalLoop=1;jettySize=auto;html=1;" edge="1" parent="1" source="A9Gm3I3LBpf3RbzOhqfh-2" target="A9Gm3I3LBpf3RbzOhqfh-8">
          <mxGeometry relative="1" as="geometry" />
        </mxCell>
        <mxCell id="A9Gm3I3LBpf3RbzOhqfh-2" value="read x" style="shape=parallelogram;perimeter=parallelogramPerimeter;whiteSpace=wrap;html=1;fixedSize=1;" vertex="1" parent="1">
          <mxGeometry x="360" y="140" width="120" height="60" as="geometry" />
        </mxCell>
        <mxCell id="A9Gm3I3LBpf3RbzOhqfh-7" value="" style="edgeStyle=orthogonalEdgeStyle;rounded=0;orthogonalLoop=1;jettySize=auto;html=1;entryX=0.5;entryY=0;entryDx=0;entryDy=0;" edge="1" parent="1">
          <mxGeometry relative="1" as="geometry">
            <mxPoint x="460" y="539" as="sourcePoint" />
            <mxPoint x="575" y="559" as="targetPoint" />
          </mxGeometry>
        </mxCell>
        <mxCell id="A9Gm3I3LBpf3RbzOhqfh-67" value="true" style="edgeLabel;html=1;align=center;verticalAlign=middle;resizable=0;points=[];" vertex="1" connectable="0" parent="A9Gm3I3LBpf3RbzOhqfh-7">
          <mxGeometry x="-0.2037" y="-4" relative="1" as="geometry">
            <mxPoint as="offset" />
          </mxGeometry>
        </mxCell>
        <mxCell id="A9Gm3I3LBpf3RbzOhqfh-69" value="true" style="edgeLabel;html=1;align=center;verticalAlign=middle;resizable=0;points=[];" vertex="1" connectable="0" parent="A9Gm3I3LBpf3RbzOhqfh-7">
          <mxGeometry x="-0.191" y="-2" relative="1" as="geometry">
            <mxPoint as="offset" />
          </mxGeometry>
        </mxCell>
        <mxCell id="A9Gm3I3LBpf3RbzOhqfh-53" value="" style="edgeStyle=orthogonalEdgeStyle;rounded=0;orthogonalLoop=1;jettySize=auto;html=1;" edge="1" parent="1" source="A9Gm3I3LBpf3RbzOhqfh-4" target="A9Gm3I3LBpf3RbzOhqfh-52">
          <mxGeometry relative="1" as="geometry" />
        </mxCell>
        <mxCell id="A9Gm3I3LBpf3RbzOhqfh-68" value="false" style="edgeLabel;html=1;align=center;verticalAlign=middle;resizable=0;points=[];" vertex="1" connectable="0" parent="A9Gm3I3LBpf3RbzOhqfh-53">
          <mxGeometry x="-0.0714" y="-3" relative="1" as="geometry">
            <mxPoint as="offset" />
          </mxGeometry>
        </mxCell>
        <mxCell id="A9Gm3I3LBpf3RbzOhqfh-4" value="&lt;div&gt;x &amp;gt; 0 and &lt;br&gt;&lt;/div&gt;&lt;div&gt;x%1==0&lt;br&gt;&lt;/div&gt;" style="rhombus;whiteSpace=wrap;html=1;" vertex="1" parent="1">
          <mxGeometry x="379" y="499" width="80" height="80" as="geometry" />
        </mxCell>
        <mxCell id="A9Gm3I3LBpf3RbzOhqfh-11" value="" style="edgeStyle=orthogonalEdgeStyle;rounded=0;orthogonalLoop=1;jettySize=auto;html=1;" edge="1" parent="1" source="A9Gm3I3LBpf3RbzOhqfh-6" target="A9Gm3I3LBpf3RbzOhqfh-10">
          <mxGeometry relative="1" as="geometry" />
        </mxCell>
        <mxCell id="A9Gm3I3LBpf3RbzOhqfh-65" value="true" style="edgeLabel;html=1;align=center;verticalAlign=middle;resizable=0;points=[];" vertex="1" connectable="0" parent="A9Gm3I3LBpf3RbzOhqfh-11">
          <mxGeometry x="0.0375" y="-2" relative="1" as="geometry">
            <mxPoint x="-1" y="-1" as="offset" />
          </mxGeometry>
        </mxCell>
        <mxCell id="A9Gm3I3LBpf3RbzOhqfh-55" value="" style="edgeStyle=orthogonalEdgeStyle;rounded=0;orthogonalLoop=1;jettySize=auto;html=1;" edge="1" parent="1" source="A9Gm3I3LBpf3RbzOhqfh-6" target="A9Gm3I3LBpf3RbzOhqfh-54">
          <mxGeometry relative="1" as="geometry" />
        </mxCell>
        <mxCell id="A9Gm3I3LBpf3RbzOhqfh-66" value="false" style="edgeLabel;html=1;align=center;verticalAlign=middle;resizable=0;points=[];" vertex="1" connectable="0" parent="A9Gm3I3LBpf3RbzOhqfh-55">
          <mxGeometry x="0.0112" y="1" relative="1" as="geometry">
            <mxPoint as="offset" />
          </mxGeometry>
        </mxCell>
        <mxCell id="A9Gm3I3LBpf3RbzOhqfh-6" value="cont &amp;lt;= 10" style="rhombus;whiteSpace=wrap;html=1;" vertex="1" parent="1">
          <mxGeometry x="535" y="559" width="80" height="80" as="geometry" />
        </mxCell>
        <mxCell id="A9Gm3I3LBpf3RbzOhqfh-24" value="" style="edgeStyle=orthogonalEdgeStyle;rounded=0;orthogonalLoop=1;jettySize=auto;html=1;" edge="1" parent="1" source="A9Gm3I3LBpf3RbzOhqfh-8" target="A9Gm3I3LBpf3RbzOhqfh-23">
          <mxGeometry relative="1" as="geometry" />
        </mxCell>
        <mxCell id="A9Gm3I3LBpf3RbzOhqfh-8" value="cont = 1" style="whiteSpace=wrap;html=1;" vertex="1" parent="1">
          <mxGeometry x="360" y="230" width="120" height="60" as="geometry" />
        </mxCell>
        <mxCell id="A9Gm3I3LBpf3RbzOhqfh-13" value="" style="edgeStyle=orthogonalEdgeStyle;rounded=0;orthogonalLoop=1;jettySize=auto;html=1;" edge="1" parent="1" source="A9Gm3I3LBpf3RbzOhqfh-10" target="A9Gm3I3LBpf3RbzOhqfh-12">
          <mxGeometry relative="1" as="geometry" />
        </mxCell>
        <mxCell id="A9Gm3I3LBpf3RbzOhqfh-10" value="read n" style="shape=parallelogram;perimeter=parallelogramPerimeter;whiteSpace=wrap;html=1;fixedSize=1;" vertex="1" parent="1">
          <mxGeometry x="515" y="679" width="120" height="60" as="geometry" />
        </mxCell>
        <mxCell id="A9Gm3I3LBpf3RbzOhqfh-17" value="" style="edgeStyle=orthogonalEdgeStyle;rounded=0;orthogonalLoop=1;jettySize=auto;html=1;entryX=0.5;entryY=0;entryDx=0;entryDy=0;" edge="1" parent="1">
          <mxGeometry relative="1" as="geometry">
            <mxPoint x="622" y="839" as="sourcePoint" />
            <mxPoint x="749" y="899" as="targetPoint" />
            <Array as="points">
              <mxPoint x="742" y="839" />
            </Array>
          </mxGeometry>
        </mxCell>
        <mxCell id="A9Gm3I3LBpf3RbzOhqfh-64" value="ture" style="edgeLabel;html=1;align=center;verticalAlign=middle;resizable=0;points=[];" vertex="1" connectable="0" parent="A9Gm3I3LBpf3RbzOhqfh-17">
          <mxGeometry x="-0.3797" y="-1" relative="1" as="geometry">
            <mxPoint as="offset" />
          </mxGeometry>
        </mxCell>
        <mxCell id="A9Gm3I3LBpf3RbzOhqfh-27" value="" style="edgeStyle=orthogonalEdgeStyle;rounded=0;orthogonalLoop=1;jettySize=auto;html=1;" edge="1" parent="1" source="A9Gm3I3LBpf3RbzOhqfh-12" target="A9Gm3I3LBpf3RbzOhqfh-26">
          <mxGeometry relative="1" as="geometry">
            <Array as="points">
              <mxPoint x="420" y="839" />
            </Array>
          </mxGeometry>
        </mxCell>
        <mxCell id="A9Gm3I3LBpf3RbzOhqfh-63" value="false" style="edgeLabel;html=1;align=center;verticalAlign=middle;resizable=0;points=[];" vertex="1" connectable="0" parent="A9Gm3I3LBpf3RbzOhqfh-27">
          <mxGeometry x="-0.4714" y="3" relative="1" as="geometry">
            <mxPoint as="offset" />
          </mxGeometry>
        </mxCell>
        <mxCell id="A9Gm3I3LBpf3RbzOhqfh-12" value="n%2==0" style="rhombus;whiteSpace=wrap;html=1;" vertex="1" parent="1">
          <mxGeometry x="535" y="799" width="80" height="80" as="geometry" />
        </mxCell>
        <mxCell id="A9Gm3I3LBpf3RbzOhqfh-19" value="" style="edgeStyle=orthogonalEdgeStyle;rounded=0;orthogonalLoop=1;jettySize=auto;html=1;" edge="1" parent="1" source="A9Gm3I3LBpf3RbzOhqfh-16" target="A9Gm3I3LBpf3RbzOhqfh-18">
          <mxGeometry relative="1" as="geometry">
            <Array as="points">
              <mxPoint x="895" y="939" />
            </Array>
          </mxGeometry>
        </mxCell>
        <mxCell id="A9Gm3I3LBpf3RbzOhqfh-59" value="true" style="edgeLabel;html=1;align=center;verticalAlign=middle;resizable=0;points=[];" vertex="1" connectable="0" parent="A9Gm3I3LBpf3RbzOhqfh-19">
          <mxGeometry x="-0.3072" relative="1" as="geometry">
            <mxPoint y="-1" as="offset" />
          </mxGeometry>
        </mxCell>
        <mxCell id="A9Gm3I3LBpf3RbzOhqfh-34" style="edgeStyle=orthogonalEdgeStyle;rounded=0;orthogonalLoop=1;jettySize=auto;html=1;exitX=0;exitY=0.5;exitDx=0;exitDy=0;" edge="1" parent="1" source="A9Gm3I3LBpf3RbzOhqfh-16">
          <mxGeometry relative="1" as="geometry">
            <mxPoint x="740" y="1099" as="targetPoint" />
            <Array as="points">
              <mxPoint x="600" y="939" />
              <mxPoint x="600" y="1099" />
            </Array>
          </mxGeometry>
        </mxCell>
        <mxCell id="A9Gm3I3LBpf3RbzOhqfh-60" value="false" style="edgeLabel;html=1;align=center;verticalAlign=middle;resizable=0;points=[];" vertex="1" connectable="0" parent="A9Gm3I3LBpf3RbzOhqfh-34">
          <mxGeometry x="-0.7351" y="2" relative="1" as="geometry">
            <mxPoint as="offset" />
          </mxGeometry>
        </mxCell>
        <mxCell id="A9Gm3I3LBpf3RbzOhqfh-16" value="n &amp;gt; x/2" style="rhombus;whiteSpace=wrap;html=1;" vertex="1" parent="1">
          <mxGeometry x="702" y="899" width="80" height="80" as="geometry" />
        </mxCell>
        <mxCell id="A9Gm3I3LBpf3RbzOhqfh-36" style="edgeStyle=orthogonalEdgeStyle;rounded=0;orthogonalLoop=1;jettySize=auto;html=1;exitX=0.5;exitY=1;exitDx=0;exitDy=0;" edge="1" parent="1" source="A9Gm3I3LBpf3RbzOhqfh-18">
          <mxGeometry relative="1" as="geometry">
            <mxPoint x="580" y="1159" as="targetPoint" />
            <Array as="points">
              <mxPoint x="895" y="1099" />
              <mxPoint x="741" y="1099" />
            </Array>
          </mxGeometry>
        </mxCell>
        <mxCell id="A9Gm3I3LBpf3RbzOhqfh-18" value="ris1=ris1 + n" style="whiteSpace=wrap;html=1;" vertex="1" parent="1">
          <mxGeometry x="835" y="979" width="120" height="60" as="geometry" />
        </mxCell>
        <mxCell id="A9Gm3I3LBpf3RbzOhqfh-50" value="" style="edgeStyle=orthogonalEdgeStyle;rounded=0;orthogonalLoop=1;jettySize=auto;html=1;" edge="1" parent="1" source="A9Gm3I3LBpf3RbzOhqfh-23" target="A9Gm3I3LBpf3RbzOhqfh-49">
          <mxGeometry relative="1" as="geometry" />
        </mxCell>
        <mxCell id="A9Gm3I3LBpf3RbzOhqfh-23" value="ris1= 0" style="rounded=0;whiteSpace=wrap;html=1;" vertex="1" parent="1">
          <mxGeometry x="360" y="320" width="120" height="60" as="geometry" />
        </mxCell>
        <mxCell id="A9Gm3I3LBpf3RbzOhqfh-31" value="" style="edgeStyle=orthogonalEdgeStyle;rounded=0;orthogonalLoop=1;jettySize=auto;html=1;" edge="1" parent="1" source="A9Gm3I3LBpf3RbzOhqfh-26" target="A9Gm3I3LBpf3RbzOhqfh-30">
          <mxGeometry relative="1" as="geometry">
            <Array as="points">
              <mxPoint x="260" y="939" />
            </Array>
          </mxGeometry>
        </mxCell>
        <mxCell id="A9Gm3I3LBpf3RbzOhqfh-62" value="true" style="edgeLabel;html=1;align=center;verticalAlign=middle;resizable=0;points=[];" vertex="1" connectable="0" parent="A9Gm3I3LBpf3RbzOhqfh-31">
          <mxGeometry x="-0.3906" y="3" relative="1" as="geometry">
            <mxPoint as="offset" />
          </mxGeometry>
        </mxCell>
        <mxCell id="A9Gm3I3LBpf3RbzOhqfh-33" style="edgeStyle=orthogonalEdgeStyle;rounded=0;orthogonalLoop=1;jettySize=auto;html=1;exitX=1;exitY=0.5;exitDx=0;exitDy=0;" edge="1" parent="1" source="A9Gm3I3LBpf3RbzOhqfh-26">
          <mxGeometry relative="1" as="geometry">
            <mxPoint x="420" y="1099" as="targetPoint" />
            <Array as="points">
              <mxPoint x="560" y="939" />
              <mxPoint x="560" y="1099" />
            </Array>
          </mxGeometry>
        </mxCell>
        <mxCell id="A9Gm3I3LBpf3RbzOhqfh-61" value="false" style="edgeLabel;html=1;align=center;verticalAlign=middle;resizable=0;points=[];" vertex="1" connectable="0" parent="A9Gm3I3LBpf3RbzOhqfh-33">
          <mxGeometry x="-0.7312" y="-3" relative="1" as="geometry">
            <mxPoint as="offset" />
          </mxGeometry>
        </mxCell>
        <mxCell id="A9Gm3I3LBpf3RbzOhqfh-26" value="n &amp;lt; x" style="rhombus;whiteSpace=wrap;html=1;" vertex="1" parent="1">
          <mxGeometry x="380" y="899" width="80" height="80" as="geometry" />
        </mxCell>
        <mxCell id="A9Gm3I3LBpf3RbzOhqfh-35" style="edgeStyle=orthogonalEdgeStyle;rounded=0;orthogonalLoop=1;jettySize=auto;html=1;exitX=0.5;exitY=1;exitDx=0;exitDy=0;" edge="1" parent="1" source="A9Gm3I3LBpf3RbzOhqfh-30">
          <mxGeometry relative="1" as="geometry">
            <mxPoint x="580" y="1179" as="targetPoint" />
            <Array as="points">
              <mxPoint x="260" y="1097" />
              <mxPoint x="421" y="1097" />
              <mxPoint x="421" y="1159" />
              <mxPoint x="580" y="1159" />
            </Array>
          </mxGeometry>
        </mxCell>
        <mxCell id="A9Gm3I3LBpf3RbzOhqfh-30" value="ris2=ris2 + n" style="whiteSpace=wrap;html=1;" vertex="1" parent="1">
          <mxGeometry x="200" y="979" width="120" height="60" as="geometry" />
        </mxCell>
        <mxCell id="A9Gm3I3LBpf3RbzOhqfh-39" value="" style="edgeStyle=orthogonalEdgeStyle;rounded=0;orthogonalLoop=1;jettySize=auto;html=1;" edge="1" parent="1" source="A9Gm3I3LBpf3RbzOhqfh-37">
          <mxGeometry relative="1" as="geometry">
            <mxPoint x="581" y="1341" as="targetPoint" />
          </mxGeometry>
        </mxCell>
        <mxCell id="A9Gm3I3LBpf3RbzOhqfh-37" value="cont += 1" style="rounded=0;whiteSpace=wrap;html=1;" vertex="1" parent="1">
          <mxGeometry x="521" y="1179" width="120" height="60" as="geometry" />
        </mxCell>
        <mxCell id="A9Gm3I3LBpf3RbzOhqfh-41" value="" style="edgeStyle=orthogonalEdgeStyle;rounded=0;orthogonalLoop=1;jettySize=auto;html=1;" edge="1" parent="1" target="A9Gm3I3LBpf3RbzOhqfh-40">
          <mxGeometry relative="1" as="geometry">
            <mxPoint x="581" y="1341" as="sourcePoint" />
          </mxGeometry>
        </mxCell>
        <mxCell id="A9Gm3I3LBpf3RbzOhqfh-38" value="" style="shape=waypoint;sketch=0;size=6;pointerEvents=1;points=[];fillColor=default;resizable=0;rotatable=0;perimeter=centerPerimeter;snapToPoint=1;rounded=0;" vertex="1" parent="1">
          <mxGeometry x="571" y="1232" width="20" height="20" as="geometry" />
        </mxCell>
        <mxCell id="A9Gm3I3LBpf3RbzOhqfh-43" value="" style="edgeStyle=orthogonalEdgeStyle;rounded=0;orthogonalLoop=1;jettySize=auto;html=1;" edge="1" parent="1" source="A9Gm3I3LBpf3RbzOhqfh-40" target="A9Gm3I3LBpf3RbzOhqfh-42">
          <mxGeometry relative="1" as="geometry" />
        </mxCell>
        <mxCell id="A9Gm3I3LBpf3RbzOhqfh-40" value="" style="shape=waypoint;sketch=0;size=6;pointerEvents=1;points=[];fillColor=default;resizable=0;rotatable=0;perimeter=centerPerimeter;snapToPoint=1;rounded=0;" vertex="1" parent="1">
          <mxGeometry x="70" y="1330" width="20" height="20" as="geometry" />
        </mxCell>
        <mxCell id="A9Gm3I3LBpf3RbzOhqfh-45" value="" style="edgeStyle=orthogonalEdgeStyle;rounded=0;orthogonalLoop=1;jettySize=auto;html=1;" edge="1" parent="1" source="A9Gm3I3LBpf3RbzOhqfh-42" target="A9Gm3I3LBpf3RbzOhqfh-44">
          <mxGeometry relative="1" as="geometry" />
        </mxCell>
        <mxCell id="A9Gm3I3LBpf3RbzOhqfh-42" value="" style="shape=waypoint;sketch=0;size=6;pointerEvents=1;points=[];fillColor=default;resizable=0;rotatable=0;perimeter=centerPerimeter;snapToPoint=1;rounded=0;" vertex="1" parent="1">
          <mxGeometry x="70" y="589" width="20" height="20" as="geometry" />
        </mxCell>
        <mxCell id="A9Gm3I3LBpf3RbzOhqfh-46" value="" style="edgeStyle=orthogonalEdgeStyle;rounded=0;orthogonalLoop=1;jettySize=auto;html=1;" edge="1" parent="1" source="A9Gm3I3LBpf3RbzOhqfh-44" target="A9Gm3I3LBpf3RbzOhqfh-6">
          <mxGeometry relative="1" as="geometry" />
        </mxCell>
        <mxCell id="A9Gm3I3LBpf3RbzOhqfh-44" value="" style="shape=waypoint;sketch=0;size=6;pointerEvents=1;points=[];fillColor=default;resizable=0;rotatable=0;perimeter=centerPerimeter;snapToPoint=1;rounded=0;" vertex="1" parent="1">
          <mxGeometry x="410" y="588" width="20" height="20" as="geometry" />
        </mxCell>
        <mxCell id="A9Gm3I3LBpf3RbzOhqfh-51" style="edgeStyle=orthogonalEdgeStyle;rounded=0;orthogonalLoop=1;jettySize=auto;html=1;exitX=0.5;exitY=1;exitDx=0;exitDy=0;entryX=0.5;entryY=0;entryDx=0;entryDy=0;" edge="1" parent="1" source="A9Gm3I3LBpf3RbzOhqfh-49" target="A9Gm3I3LBpf3RbzOhqfh-4">
          <mxGeometry relative="1" as="geometry" />
        </mxCell>
        <mxCell id="A9Gm3I3LBpf3RbzOhqfh-49" value="ris2 = 0" style="rounded=0;whiteSpace=wrap;html=1;" vertex="1" parent="1">
          <mxGeometry x="360" y="407" width="120" height="60" as="geometry" />
        </mxCell>
        <mxCell id="A9Gm3I3LBpf3RbzOhqfh-58" style="edgeStyle=orthogonalEdgeStyle;rounded=0;orthogonalLoop=1;jettySize=auto;html=1;exitX=0;exitY=0.5;exitDx=0;exitDy=0;" edge="1" parent="1" target="A9Gm3I3LBpf3RbzOhqfh-56">
          <mxGeometry relative="1" as="geometry">
            <mxPoint x="1004" y="639" as="targetPoint" />
            <mxPoint x="236" y="539" as="sourcePoint" />
            <Array as="points">
              <mxPoint x="66" y="539" />
              <mxPoint x="66" y="1420" />
              <mxPoint x="980" y="1420" />
            </Array>
          </mxGeometry>
        </mxCell>
        <mxCell id="A9Gm3I3LBpf3RbzOhqfh-52" value="write &quot;Errore&quot;" style="shape=parallelogram;perimeter=parallelogramPerimeter;whiteSpace=wrap;html=1;fixedSize=1;" vertex="1" parent="1">
          <mxGeometry x="200" y="509" width="120" height="60" as="geometry" />
        </mxCell>
        <mxCell id="A9Gm3I3LBpf3RbzOhqfh-57" value="" style="edgeStyle=orthogonalEdgeStyle;rounded=0;orthogonalLoop=1;jettySize=auto;html=1;" edge="1" parent="1" source="A9Gm3I3LBpf3RbzOhqfh-54" target="A9Gm3I3LBpf3RbzOhqfh-56">
          <mxGeometry relative="1" as="geometry" />
        </mxCell>
        <mxCell id="A9Gm3I3LBpf3RbzOhqfh-54" value="write ris1, ris2" style="shape=parallelogram;perimeter=parallelogramPerimeter;whiteSpace=wrap;html=1;fixedSize=1;" vertex="1" parent="1">
          <mxGeometry x="694" y="569" width="120" height="60" as="geometry" />
        </mxCell>
        <mxCell id="A9Gm3I3LBpf3RbzOhqfh-56" value="end" style="ellipse;whiteSpace=wrap;html=1;" vertex="1" parent="1">
          <mxGeometry x="938" y="559" width="80" height="80" as="geometry" />
        </mxCell>
      </root>
    </mxGraphModel>
  </diagram>
  <diagram id="bUR8PEZgB1xdltpYhMX3" name="lezione3esercizio7">
    <mxGraphModel dx="1142" dy="553" grid="1" gridSize="10" guides="1" tooltips="1" connect="1" arrows="1" fold="1" page="1" pageScale="1" pageWidth="850" pageHeight="1100" math="0" shadow="0">
      <root>
        <mxCell id="0" />
        <mxCell id="1" parent="0" />
        <mxCell id="vob78rRojdzHArDRnl7_-5" value="" style="edgeStyle=orthogonalEdgeStyle;rounded=0;orthogonalLoop=1;jettySize=auto;html=1;" parent="1" source="vob78rRojdzHArDRnl7_-1" target="vob78rRojdzHArDRnl7_-11" edge="1">
          <mxGeometry relative="1" as="geometry">
            <mxPoint x="425" y="132" as="targetPoint" />
          </mxGeometry>
        </mxCell>
        <mxCell id="vob78rRojdzHArDRnl7_-1" value="start" style="ellipse;whiteSpace=wrap;html=1;" parent="1" vertex="1">
          <mxGeometry x="360" y="20" width="120" height="80" as="geometry" />
        </mxCell>
        <mxCell id="vob78rRojdzHArDRnl7_-46" value="" style="edgeStyle=orthogonalEdgeStyle;rounded=0;orthogonalLoop=1;jettySize=auto;html=1;" parent="1" source="vob78rRojdzHArDRnl7_-6" target="vob78rRojdzHArDRnl7_-43" edge="1">
          <mxGeometry relative="1" as="geometry" />
        </mxCell>
        <mxCell id="vob78rRojdzHArDRnl7_-6" value="read si_no" style="shape=parallelogram;perimeter=parallelogramPerimeter;whiteSpace=wrap;html=1;fixedSize=1;" parent="1" vertex="1">
          <mxGeometry x="360" y="210" width="120" height="60" as="geometry" />
        </mxCell>
        <mxCell id="vob78rRojdzHArDRnl7_-31" value="" style="edgeStyle=orthogonalEdgeStyle;rounded=0;orthogonalLoop=1;jettySize=auto;html=1;" parent="1" source="vob78rRojdzHArDRnl7_-8" target="vob78rRojdzHArDRnl7_-10" edge="1">
          <mxGeometry relative="1" as="geometry">
            <mxPoint x="420" y="518" as="targetPoint" />
            <Array as="points">
              <mxPoint x="420" y="500" />
              <mxPoint x="421" y="500" />
            </Array>
          </mxGeometry>
        </mxCell>
        <mxCell id="vob78rRojdzHArDRnl7_-42" value="true" style="edgeLabel;html=1;align=center;verticalAlign=middle;resizable=0;points=[];" parent="vob78rRojdzHArDRnl7_-31" vertex="1" connectable="0">
          <mxGeometry x="-0.6239" relative="1" as="geometry">
            <mxPoint as="offset" />
          </mxGeometry>
        </mxCell>
        <mxCell id="vob78rRojdzHArDRnl7_-49" value="" style="edgeStyle=orthogonalEdgeStyle;rounded=0;orthogonalLoop=1;jettySize=auto;html=1;" parent="1" source="vob78rRojdzHArDRnl7_-8" target="vob78rRojdzHArDRnl7_-48" edge="1">
          <mxGeometry relative="1" as="geometry" />
        </mxCell>
        <mxCell id="vob78rRojdzHArDRnl7_-51" value="false" style="edgeLabel;html=1;align=center;verticalAlign=middle;resizable=0;points=[];" parent="vob78rRojdzHArDRnl7_-49" vertex="1" connectable="0">
          <mxGeometry x="-0.3146" y="-4" relative="1" as="geometry">
            <mxPoint y="-5" as="offset" />
          </mxGeometry>
        </mxCell>
        <mxCell id="vob78rRojdzHArDRnl7_-8" value="si_no == &quot;si&quot;" style="rhombus;whiteSpace=wrap;html=1;" parent="1" vertex="1">
          <mxGeometry x="380" y="402" width="80" height="80" as="geometry" />
        </mxCell>
        <mxCell id="vob78rRojdzHArDRnl7_-25" value="" style="edgeStyle=orthogonalEdgeStyle;rounded=0;orthogonalLoop=1;jettySize=auto;html=1;" parent="1" source="vob78rRojdzHArDRnl7_-10" target="vob78rRojdzHArDRnl7_-24" edge="1">
          <mxGeometry relative="1" as="geometry" />
        </mxCell>
        <mxCell id="vob78rRojdzHArDRnl7_-10" value="read voto" style="shape=parallelogram;perimeter=parallelogramPerimeter;whiteSpace=wrap;html=1;fixedSize=1;" parent="1" vertex="1">
          <mxGeometry x="361" y="598" width="120" height="60" as="geometry" />
        </mxCell>
        <mxCell id="vob78rRojdzHArDRnl7_-12" value="" style="edgeStyle=orthogonalEdgeStyle;rounded=0;orthogonalLoop=1;jettySize=auto;html=1;" parent="1" source="vob78rRojdzHArDRnl7_-11" target="vob78rRojdzHArDRnl7_-6" edge="1">
          <mxGeometry relative="1" as="geometry" />
        </mxCell>
        <mxCell id="vob78rRojdzHArDRnl7_-11" value="write &quot;Desidera inserire un voto?&quot;" style="shape=parallelogram;perimeter=parallelogramPerimeter;whiteSpace=wrap;html=1;fixedSize=1;" parent="1" vertex="1">
          <mxGeometry x="360" y="130" width="120" height="60" as="geometry" />
        </mxCell>
        <mxCell id="vob78rRojdzHArDRnl7_-23" value="" style="edgeStyle=orthogonalEdgeStyle;rounded=0;orthogonalLoop=1;jettySize=auto;html=1;" parent="1" source="vob78rRojdzHArDRnl7_-14" target="vob78rRojdzHArDRnl7_-22" edge="1">
          <mxGeometry relative="1" as="geometry" />
        </mxCell>
        <mxCell id="vob78rRojdzHArDRnl7_-14" value="sum = sum + voto" style="whiteSpace=wrap;html=1;" parent="1" vertex="1">
          <mxGeometry x="520" y="798" width="120" height="60" as="geometry" />
        </mxCell>
        <mxCell id="vob78rRojdzHArDRnl7_-28" value="" style="edgeStyle=orthogonalEdgeStyle;rounded=0;orthogonalLoop=1;jettySize=auto;html=1;" parent="1" source="vob78rRojdzHArDRnl7_-22" target="vob78rRojdzHArDRnl7_-27" edge="1">
          <mxGeometry relative="1" as="geometry" />
        </mxCell>
        <mxCell id="vob78rRojdzHArDRnl7_-22" value="media = sum / cont" style="whiteSpace=wrap;html=1;" parent="1" vertex="1">
          <mxGeometry x="520" y="886" width="120" height="60" as="geometry" />
        </mxCell>
        <mxCell id="vob78rRojdzHArDRnl7_-26" style="edgeStyle=orthogonalEdgeStyle;rounded=0;orthogonalLoop=1;jettySize=auto;html=1;" parent="1" source="vob78rRojdzHArDRnl7_-24" target="vob78rRojdzHArDRnl7_-14" edge="1">
          <mxGeometry relative="1" as="geometry" />
        </mxCell>
        <mxCell id="vob78rRojdzHArDRnl7_-39" value="true" style="edgeLabel;html=1;align=center;verticalAlign=middle;resizable=0;points=[];" parent="vob78rRojdzHArDRnl7_-26" vertex="1" connectable="0">
          <mxGeometry x="-0.3483" y="-3" relative="1" as="geometry">
            <mxPoint as="offset" />
          </mxGeometry>
        </mxCell>
        <mxCell id="vob78rRojdzHArDRnl7_-29" style="edgeStyle=orthogonalEdgeStyle;rounded=0;orthogonalLoop=1;jettySize=auto;html=1;exitX=0;exitY=0.5;exitDx=0;exitDy=0;entryX=0;entryY=0.5;entryDx=0;entryDy=0;" parent="1" source="vob78rRojdzHArDRnl7_-24" target="vob78rRojdzHArDRnl7_-10" edge="1">
          <mxGeometry relative="1" as="geometry">
            <mxPoint x="271" y="639" as="targetPoint" />
            <Array as="points">
              <mxPoint x="350" y="739" />
              <mxPoint x="350" y="628" />
            </Array>
          </mxGeometry>
        </mxCell>
        <mxCell id="vob78rRojdzHArDRnl7_-40" value="false" style="edgeLabel;html=1;align=center;verticalAlign=middle;resizable=0;points=[];" parent="vob78rRojdzHArDRnl7_-29" vertex="1" connectable="0">
          <mxGeometry x="-0.0307" y="2" relative="1" as="geometry">
            <mxPoint as="offset" />
          </mxGeometry>
        </mxCell>
        <mxCell id="vob78rRojdzHArDRnl7_-24" value="voto &amp;gt; 0" style="rhombus;whiteSpace=wrap;html=1;" parent="1" vertex="1">
          <mxGeometry x="381" y="699" width="80" height="80" as="geometry" />
        </mxCell>
        <mxCell id="vob78rRojdzHArDRnl7_-33" value="" style="edgeStyle=orthogonalEdgeStyle;rounded=0;orthogonalLoop=1;jettySize=auto;html=1;entryX=0.088;entryY=0.513;entryDx=0;entryDy=0;entryPerimeter=0;" parent="1" source="vob78rRojdzHArDRnl7_-27" target="vob78rRojdzHArDRnl7_-8" edge="1">
          <mxGeometry relative="1" as="geometry">
            <mxPoint x="290" y="752" as="targetPoint" />
            <Array as="points">
              <mxPoint x="310" y="1004" />
              <mxPoint x="310" y="443" />
            </Array>
          </mxGeometry>
        </mxCell>
        <mxCell id="vob78rRojdzHArDRnl7_-27" value="cont += 1" style="whiteSpace=wrap;html=1;" parent="1" vertex="1">
          <mxGeometry x="520" y="974" width="120" height="60" as="geometry" />
        </mxCell>
        <mxCell id="vob78rRojdzHArDRnl7_-37" value="" style="edgeStyle=orthogonalEdgeStyle;rounded=0;orthogonalLoop=1;jettySize=auto;html=1;" parent="1" source="vob78rRojdzHArDRnl7_-34" target="vob78rRojdzHArDRnl7_-36" edge="1">
          <mxGeometry relative="1" as="geometry" />
        </mxCell>
        <mxCell id="vob78rRojdzHArDRnl7_-34" value="write media" style="shape=parallelogram;perimeter=parallelogramPerimeter;whiteSpace=wrap;html=1;fixedSize=1;" parent="1" vertex="1">
          <mxGeometry x="671" y="411" width="120" height="60" as="geometry" />
        </mxCell>
        <mxCell id="vob78rRojdzHArDRnl7_-36" value="end" style="ellipse;whiteSpace=wrap;html=1;" parent="1" vertex="1">
          <mxGeometry x="844" y="401" width="80" height="80" as="geometry" />
        </mxCell>
        <mxCell id="vob78rRojdzHArDRnl7_-44" value="" style="edgeStyle=orthogonalEdgeStyle;rounded=0;orthogonalLoop=1;jettySize=auto;html=1;" parent="1" source="vob78rRojdzHArDRnl7_-43" target="vob78rRojdzHArDRnl7_-8" edge="1">
          <mxGeometry relative="1" as="geometry" />
        </mxCell>
        <mxCell id="vob78rRojdzHArDRnl7_-43" value="cont = 1, sum = 0, media = 0" style="rounded=0;whiteSpace=wrap;html=1;" parent="1" vertex="1">
          <mxGeometry x="360" y="310" width="120" height="60" as="geometry" />
        </mxCell>
        <mxCell id="vob78rRojdzHArDRnl7_-53" style="edgeStyle=orthogonalEdgeStyle;rounded=0;orthogonalLoop=1;jettySize=auto;html=1;entryX=1;entryY=0.5;entryDx=0;entryDy=0;" parent="1" source="vob78rRojdzHArDRnl7_-48" target="vob78rRojdzHArDRnl7_-6" edge="1">
          <mxGeometry relative="1" as="geometry">
            <Array as="points">
              <mxPoint x="590" y="240" />
            </Array>
          </mxGeometry>
        </mxCell>
        <mxCell id="vob78rRojdzHArDRnl7_-54" value="false" style="edgeLabel;html=1;align=center;verticalAlign=middle;resizable=0;points=[];" parent="vob78rRojdzHArDRnl7_-53" vertex="1" connectable="0">
          <mxGeometry x="-0.4043" relative="1" as="geometry">
            <mxPoint as="offset" />
          </mxGeometry>
        </mxCell>
        <mxCell id="vob78rRojdzHArDRnl7_-56" style="edgeStyle=orthogonalEdgeStyle;rounded=0;orthogonalLoop=1;jettySize=auto;html=1;exitX=1;exitY=0.5;exitDx=0;exitDy=0;" parent="1" source="vob78rRojdzHArDRnl7_-48" target="vob78rRojdzHArDRnl7_-34" edge="1">
          <mxGeometry relative="1" as="geometry" />
        </mxCell>
        <mxCell id="vob78rRojdzHArDRnl7_-57" value="true" style="edgeLabel;html=1;align=center;verticalAlign=middle;resizable=0;points=[];" parent="vob78rRojdzHArDRnl7_-56" vertex="1" connectable="0">
          <mxGeometry x="-0.2692" y="-1" relative="1" as="geometry">
            <mxPoint y="-1" as="offset" />
          </mxGeometry>
        </mxCell>
        <mxCell id="vob78rRojdzHArDRnl7_-48" value="si_no == &quot;no&quot;" style="rhombus;whiteSpace=wrap;html=1;" parent="1" vertex="1">
          <mxGeometry x="550" y="402" width="80" height="80" as="geometry" />
        </mxCell>
      </root>
    </mxGraphModel>
  </diagram>
  <diagram id="PoqdoMW_K0s3_wN90G7x" name="lezione3esercizio8">
    <mxGraphModel dx="1278" dy="901" grid="1" gridSize="10" guides="1" tooltips="1" connect="1" arrows="1" fold="1" page="1" pageScale="1" pageWidth="850" pageHeight="1100" math="0" shadow="0">
      <root>
        <mxCell id="0" />
        <mxCell id="1" parent="0" />
        <mxCell id="wHuKZuV4ssyGS4s8Llmr-3" value="" style="edgeStyle=orthogonalEdgeStyle;rounded=0;orthogonalLoop=1;jettySize=auto;html=1;" edge="1" parent="1" source="wHuKZuV4ssyGS4s8Llmr-1" target="wHuKZuV4ssyGS4s8Llmr-2">
          <mxGeometry relative="1" as="geometry" />
        </mxCell>
        <mxCell id="wHuKZuV4ssyGS4s8Llmr-1" value="start" style="ellipse;whiteSpace=wrap;html=1;aspect=fixed;" vertex="1" parent="1">
          <mxGeometry x="385" y="50" width="80" height="80" as="geometry" />
        </mxCell>
        <mxCell id="wHuKZuV4ssyGS4s8Llmr-5" value="" style="edgeStyle=orthogonalEdgeStyle;rounded=0;orthogonalLoop=1;jettySize=auto;html=1;" edge="1" parent="1" source="wHuKZuV4ssyGS4s8Llmr-2" target="wHuKZuV4ssyGS4s8Llmr-4">
          <mxGeometry relative="1" as="geometry" />
        </mxCell>
        <mxCell id="wHuKZuV4ssyGS4s8Llmr-2" value="sum = 0" style="whiteSpace=wrap;html=1;" vertex="1" parent="1">
          <mxGeometry x="365" y="160" width="120" height="60" as="geometry" />
        </mxCell>
        <mxCell id="wHuKZuV4ssyGS4s8Llmr-7" value="" style="edgeStyle=orthogonalEdgeStyle;rounded=0;orthogonalLoop=1;jettySize=auto;html=1;" edge="1" parent="1" source="wHuKZuV4ssyGS4s8Llmr-4" target="wHuKZuV4ssyGS4s8Llmr-6">
          <mxGeometry relative="1" as="geometry" />
        </mxCell>
        <mxCell id="wHuKZuV4ssyGS4s8Llmr-4" value="read a, read b" style="shape=parallelogram;perimeter=parallelogramPerimeter;whiteSpace=wrap;html=1;fixedSize=1;" vertex="1" parent="1">
          <mxGeometry x="365" y="278" width="120" height="60" as="geometry" />
        </mxCell>
        <mxCell id="wHuKZuV4ssyGS4s8Llmr-9" value="" style="edgeStyle=orthogonalEdgeStyle;rounded=0;orthogonalLoop=1;jettySize=auto;html=1;" edge="1" parent="1" source="wHuKZuV4ssyGS4s8Llmr-6" target="wHuKZuV4ssyGS4s8Llmr-8">
          <mxGeometry relative="1" as="geometry" />
        </mxCell>
        <mxCell id="wHuKZuV4ssyGS4s8Llmr-28" value="true" style="edgeLabel;html=1;align=center;verticalAlign=middle;resizable=0;points=[];" vertex="1" connectable="0" parent="wHuKZuV4ssyGS4s8Llmr-9">
          <mxGeometry x="0.08" y="-4" relative="1" as="geometry">
            <mxPoint as="offset" />
          </mxGeometry>
        </mxCell>
        <mxCell id="wHuKZuV4ssyGS4s8Llmr-26" value="" style="edgeStyle=orthogonalEdgeStyle;rounded=0;orthogonalLoop=1;jettySize=auto;html=1;" edge="1" parent="1" source="wHuKZuV4ssyGS4s8Llmr-6" target="wHuKZuV4ssyGS4s8Llmr-25">
          <mxGeometry relative="1" as="geometry" />
        </mxCell>
        <mxCell id="wHuKZuV4ssyGS4s8Llmr-31" value="false" style="edgeLabel;html=1;align=center;verticalAlign=middle;resizable=0;points=[];" vertex="1" connectable="0" parent="wHuKZuV4ssyGS4s8Llmr-26">
          <mxGeometry x="-0.0857" y="-1" relative="1" as="geometry">
            <mxPoint as="offset" />
          </mxGeometry>
        </mxCell>
        <mxCell id="wHuKZuV4ssyGS4s8Llmr-6" value="&lt;div&gt;a &amp;lt; b &lt;br&gt;&lt;/div&gt;&lt;div&gt;and a&amp;gt;0 and a%1==0 b&amp;gt;0 &lt;br&gt;&lt;/div&gt;&lt;div&gt;and b%1==0&lt;br&gt;&lt;/div&gt;" style="rhombus;whiteSpace=wrap;html=1;" vertex="1" parent="1">
          <mxGeometry x="345" y="371" width="160" height="110" as="geometry" />
        </mxCell>
        <mxCell id="wHuKZuV4ssyGS4s8Llmr-11" value="" style="edgeStyle=orthogonalEdgeStyle;rounded=0;orthogonalLoop=1;jettySize=auto;html=1;" edge="1" parent="1" source="wHuKZuV4ssyGS4s8Llmr-8" target="wHuKZuV4ssyGS4s8Llmr-10">
          <mxGeometry relative="1" as="geometry" />
        </mxCell>
        <mxCell id="wHuKZuV4ssyGS4s8Llmr-8" value="cont = a" style="whiteSpace=wrap;html=1;" vertex="1" parent="1">
          <mxGeometry x="365" y="526" width="120" height="60" as="geometry" />
        </mxCell>
        <mxCell id="wHuKZuV4ssyGS4s8Llmr-13" value="" style="edgeStyle=orthogonalEdgeStyle;rounded=0;orthogonalLoop=1;jettySize=auto;html=1;" edge="1" parent="1" source="wHuKZuV4ssyGS4s8Llmr-10" target="wHuKZuV4ssyGS4s8Llmr-12">
          <mxGeometry relative="1" as="geometry" />
        </mxCell>
        <mxCell id="wHuKZuV4ssyGS4s8Llmr-29" value="true" style="edgeLabel;html=1;align=center;verticalAlign=middle;resizable=0;points=[];" vertex="1" connectable="0" parent="wHuKZuV4ssyGS4s8Llmr-13">
          <mxGeometry x="-0.08" y="1" relative="1" as="geometry">
            <mxPoint as="offset" />
          </mxGeometry>
        </mxCell>
        <mxCell id="wHuKZuV4ssyGS4s8Llmr-19" value="" style="edgeStyle=orthogonalEdgeStyle;rounded=0;orthogonalLoop=1;jettySize=auto;html=1;" edge="1" parent="1" source="wHuKZuV4ssyGS4s8Llmr-10" target="wHuKZuV4ssyGS4s8Llmr-17">
          <mxGeometry relative="1" as="geometry" />
        </mxCell>
        <mxCell id="wHuKZuV4ssyGS4s8Llmr-30" value="false" style="edgeLabel;html=1;align=center;verticalAlign=middle;resizable=0;points=[];" vertex="1" connectable="0" parent="wHuKZuV4ssyGS4s8Llmr-19">
          <mxGeometry x="-0.1143" y="-2" relative="1" as="geometry">
            <mxPoint as="offset" />
          </mxGeometry>
        </mxCell>
        <mxCell id="wHuKZuV4ssyGS4s8Llmr-10" value="cont &amp;lt;= b" style="rhombus;whiteSpace=wrap;html=1;" vertex="1" parent="1">
          <mxGeometry x="385" y="632" width="80" height="80" as="geometry" />
        </mxCell>
        <mxCell id="wHuKZuV4ssyGS4s8Llmr-15" value="" style="edgeStyle=orthogonalEdgeStyle;rounded=0;orthogonalLoop=1;jettySize=auto;html=1;" edge="1" parent="1" source="wHuKZuV4ssyGS4s8Llmr-12" target="wHuKZuV4ssyGS4s8Llmr-14">
          <mxGeometry relative="1" as="geometry" />
        </mxCell>
        <mxCell id="wHuKZuV4ssyGS4s8Llmr-12" value="sum = sum + cont" style="whiteSpace=wrap;html=1;" vertex="1" parent="1">
          <mxGeometry x="365" y="762" width="120" height="60" as="geometry" />
        </mxCell>
        <mxCell id="wHuKZuV4ssyGS4s8Llmr-14" value="cont += 1" style="whiteSpace=wrap;html=1;" vertex="1" parent="1">
          <mxGeometry x="365" y="868" width="120" height="60" as="geometry" />
        </mxCell>
        <mxCell id="wHuKZuV4ssyGS4s8Llmr-16" style="edgeStyle=orthogonalEdgeStyle;rounded=0;orthogonalLoop=1;jettySize=auto;html=1;" edge="1" parent="1" source="wHuKZuV4ssyGS4s8Llmr-14" target="wHuKZuV4ssyGS4s8Llmr-10">
          <mxGeometry relative="1" as="geometry">
            <Array as="points">
              <mxPoint x="425" y="980" />
              <mxPoint x="320" y="980" />
              <mxPoint x="320" y="670" />
            </Array>
          </mxGeometry>
        </mxCell>
        <mxCell id="wHuKZuV4ssyGS4s8Llmr-21" value="" style="edgeStyle=orthogonalEdgeStyle;rounded=0;orthogonalLoop=1;jettySize=auto;html=1;" edge="1" parent="1" source="wHuKZuV4ssyGS4s8Llmr-17" target="wHuKZuV4ssyGS4s8Llmr-20">
          <mxGeometry relative="1" as="geometry" />
        </mxCell>
        <mxCell id="wHuKZuV4ssyGS4s8Llmr-17" value="write sum" style="shape=parallelogram;perimeter=parallelogramPerimeter;whiteSpace=wrap;html=1;fixedSize=1;" vertex="1" parent="1">
          <mxGeometry x="573" y="642" width="120" height="60" as="geometry" />
        </mxCell>
        <mxCell id="wHuKZuV4ssyGS4s8Llmr-23" value="" style="edgeStyle=orthogonalEdgeStyle;rounded=0;orthogonalLoop=1;jettySize=auto;html=1;" edge="1" parent="1" source="wHuKZuV4ssyGS4s8Llmr-20" target="wHuKZuV4ssyGS4s8Llmr-22">
          <mxGeometry relative="1" as="geometry" />
        </mxCell>
        <mxCell id="wHuKZuV4ssyGS4s8Llmr-20" value="" style="shape=waypoint;sketch=0;size=6;pointerEvents=1;points=[];fillColor=default;resizable=0;rotatable=0;perimeter=centerPerimeter;snapToPoint=1;" vertex="1" parent="1">
          <mxGeometry x="623" y="536" width="20" height="20" as="geometry" />
        </mxCell>
        <mxCell id="wHuKZuV4ssyGS4s8Llmr-22" value="end" style="ellipse;whiteSpace=wrap;html=1;sketch=0;pointerEvents=1;resizable=0;" vertex="1" parent="1">
          <mxGeometry x="693" y="506" width="80" height="80" as="geometry" />
        </mxCell>
        <mxCell id="wHuKZuV4ssyGS4s8Llmr-27" value="" style="edgeStyle=orthogonalEdgeStyle;rounded=0;orthogonalLoop=1;jettySize=auto;html=1;" edge="1" parent="1" source="wHuKZuV4ssyGS4s8Llmr-25" target="wHuKZuV4ssyGS4s8Llmr-20">
          <mxGeometry relative="1" as="geometry" />
        </mxCell>
        <mxCell id="wHuKZuV4ssyGS4s8Llmr-25" value="write &quot;Errore&quot;" style="shape=parallelogram;perimeter=parallelogramPerimeter;whiteSpace=wrap;html=1;fixedSize=1;" vertex="1" parent="1">
          <mxGeometry x="573" y="396" width="120" height="60" as="geometry" />
        </mxCell>
      </root>
    </mxGraphModel>
  </diagram>
  <diagram id="3V7qUt24LX-Jr3_U5yAZ" name="lezione3esercizio9">
    <mxGraphModel dx="1674" dy="795" grid="1" gridSize="10" guides="1" tooltips="1" connect="1" arrows="1" fold="1" page="1" pageScale="1" pageWidth="850" pageHeight="1100" math="0" shadow="0">
      <root>
        <mxCell id="0" />
        <mxCell id="1" parent="0" />
        <mxCell id="OlaUv3iZTxDzHLK98Rr0-3" value="" style="edgeStyle=orthogonalEdgeStyle;rounded=0;orthogonalLoop=1;jettySize=auto;html=1;" edge="1" parent="1" target="OlaUv3iZTxDzHLK98Rr0-2">
          <mxGeometry relative="1" as="geometry">
            <mxPoint x="420" y="50" as="sourcePoint" />
          </mxGeometry>
        </mxCell>
        <mxCell id="OlaUv3iZTxDzHLK98Rr0-1" value="start" style="ellipse;whiteSpace=wrap;html=1;" vertex="1" parent="1">
          <mxGeometry x="360" y="20" width="120" height="80" as="geometry" />
        </mxCell>
        <mxCell id="OlaUv3iZTxDzHLK98Rr0-5" value="" style="edgeStyle=orthogonalEdgeStyle;rounded=0;orthogonalLoop=1;jettySize=auto;html=1;" edge="1" parent="1" source="OlaUv3iZTxDzHLK98Rr0-2" target="OlaUv3iZTxDzHLK98Rr0-4">
          <mxGeometry relative="1" as="geometry" />
        </mxCell>
        <mxCell id="OlaUv3iZTxDzHLK98Rr0-2" value="cont = 0, cont1 = 0" style="whiteSpace=wrap;html=1;" vertex="1" parent="1">
          <mxGeometry x="360" y="140" width="120" height="60" as="geometry" />
        </mxCell>
        <mxCell id="OlaUv3iZTxDzHLK98Rr0-7" value="" style="edgeStyle=orthogonalEdgeStyle;rounded=0;orthogonalLoop=1;jettySize=auto;html=1;" edge="1" parent="1" source="OlaUv3iZTxDzHLK98Rr0-4" target="OlaUv3iZTxDzHLK98Rr0-6">
          <mxGeometry relative="1" as="geometry" />
        </mxCell>
        <mxCell id="OlaUv3iZTxDzHLK98Rr0-4" value="read n" style="shape=parallelogram;perimeter=parallelogramPerimeter;whiteSpace=wrap;html=1;fixedSize=1;" vertex="1" parent="1">
          <mxGeometry x="360" y="240" width="120" height="60" as="geometry" />
        </mxCell>
        <mxCell id="OlaUv3iZTxDzHLK98Rr0-11" value="" style="edgeStyle=orthogonalEdgeStyle;rounded=0;orthogonalLoop=1;jettySize=auto;html=1;" edge="1" parent="1" source="OlaUv3iZTxDzHLK98Rr0-6" target="OlaUv3iZTxDzHLK98Rr0-10">
          <mxGeometry relative="1" as="geometry" />
        </mxCell>
        <mxCell id="OlaUv3iZTxDzHLK98Rr0-32" value="true" style="edgeLabel;html=1;align=center;verticalAlign=middle;resizable=0;points=[];" vertex="1" connectable="0" parent="OlaUv3iZTxDzHLK98Rr0-11">
          <mxGeometry x="-0.16" y="-1" relative="1" as="geometry">
            <mxPoint as="offset" />
          </mxGeometry>
        </mxCell>
        <mxCell id="OlaUv3iZTxDzHLK98Rr0-23" value="" style="edgeStyle=orthogonalEdgeStyle;rounded=0;orthogonalLoop=1;jettySize=auto;html=1;" edge="1" parent="1" source="OlaUv3iZTxDzHLK98Rr0-6" target="OlaUv3iZTxDzHLK98Rr0-22">
          <mxGeometry relative="1" as="geometry" />
        </mxCell>
        <mxCell id="OlaUv3iZTxDzHLK98Rr0-33" value="false" style="edgeLabel;html=1;align=center;verticalAlign=middle;resizable=0;points=[];" vertex="1" connectable="0" parent="OlaUv3iZTxDzHLK98Rr0-23">
          <mxGeometry x="-0.0333" y="-2" relative="1" as="geometry">
            <mxPoint as="offset" />
          </mxGeometry>
        </mxCell>
        <mxCell id="OlaUv3iZTxDzHLK98Rr0-6" value="&amp;nbsp;n%1==0 and n &amp;gt; 0 " style="rhombus;whiteSpace=wrap;html=1;" vertex="1" parent="1">
          <mxGeometry x="380" y="340" width="80" height="80" as="geometry" />
        </mxCell>
        <mxCell id="OlaUv3iZTxDzHLK98Rr0-13" value="" style="edgeStyle=orthogonalEdgeStyle;rounded=0;orthogonalLoop=1;jettySize=auto;html=1;" edge="1" parent="1" source="OlaUv3iZTxDzHLK98Rr0-10" target="OlaUv3iZTxDzHLK98Rr0-12">
          <mxGeometry relative="1" as="geometry" />
        </mxCell>
        <mxCell id="OlaUv3iZTxDzHLK98Rr0-35" value="true" style="edgeLabel;html=1;align=center;verticalAlign=middle;resizable=0;points=[];" vertex="1" connectable="0" parent="OlaUv3iZTxDzHLK98Rr0-13">
          <mxGeometry x="-0.4" relative="1" as="geometry">
            <mxPoint as="offset" />
          </mxGeometry>
        </mxCell>
        <mxCell id="OlaUv3iZTxDzHLK98Rr0-21" value="" style="edgeStyle=orthogonalEdgeStyle;rounded=0;orthogonalLoop=1;jettySize=auto;html=1;" edge="1" parent="1" source="OlaUv3iZTxDzHLK98Rr0-10" target="OlaUv3iZTxDzHLK98Rr0-20">
          <mxGeometry relative="1" as="geometry" />
        </mxCell>
        <mxCell id="OlaUv3iZTxDzHLK98Rr0-34" value="false" style="edgeLabel;html=1;align=center;verticalAlign=middle;resizable=0;points=[];" vertex="1" connectable="0" parent="OlaUv3iZTxDzHLK98Rr0-21">
          <mxGeometry x="-0.2" y="-2" relative="1" as="geometry">
            <mxPoint as="offset" />
          </mxGeometry>
        </mxCell>
        <mxCell id="OlaUv3iZTxDzHLK98Rr0-10" value="cont &amp;lt; 10" style="rhombus;whiteSpace=wrap;html=1;" vertex="1" parent="1">
          <mxGeometry x="380" y="470" width="80" height="80" as="geometry" />
        </mxCell>
        <mxCell id="24DjrfcCDRnE8tF-mRnY-2" value="" style="edgeStyle=orthogonalEdgeStyle;rounded=0;orthogonalLoop=1;jettySize=auto;html=1;" edge="1" parent="1" source="OlaUv3iZTxDzHLK98Rr0-12" target="24DjrfcCDRnE8tF-mRnY-1">
          <mxGeometry relative="1" as="geometry" />
        </mxCell>
        <mxCell id="OlaUv3iZTxDzHLK98Rr0-12" value="read numeri" style="shape=parallelogram;perimeter=parallelogramPerimeter;whiteSpace=wrap;html=1;fixedSize=1;" vertex="1" parent="1">
          <mxGeometry x="360" y="580" width="120" height="60" as="geometry" />
        </mxCell>
        <mxCell id="OlaUv3iZTxDzHLK98Rr0-17" value="" style="edgeStyle=orthogonalEdgeStyle;rounded=0;orthogonalLoop=1;jettySize=auto;html=1;" edge="1" parent="1" source="OlaUv3iZTxDzHLK98Rr0-14" target="OlaUv3iZTxDzHLK98Rr0-16">
          <mxGeometry relative="1" as="geometry" />
        </mxCell>
        <mxCell id="OlaUv3iZTxDzHLK98Rr0-36" value="true" style="edgeLabel;html=1;align=center;verticalAlign=middle;resizable=0;points=[];" vertex="1" connectable="0" parent="OlaUv3iZTxDzHLK98Rr0-17">
          <mxGeometry x="-0.1707" y="1" relative="1" as="geometry">
            <mxPoint as="offset" />
          </mxGeometry>
        </mxCell>
        <mxCell id="OlaUv3iZTxDzHLK98Rr0-19" style="edgeStyle=orthogonalEdgeStyle;rounded=0;orthogonalLoop=1;jettySize=auto;html=1;exitX=0;exitY=0.5;exitDx=0;exitDy=0;" edge="1" parent="1" source="OlaUv3iZTxDzHLK98Rr0-14">
          <mxGeometry relative="1" as="geometry">
            <mxPoint x="310" y="793" as="targetPoint" />
          </mxGeometry>
        </mxCell>
        <mxCell id="OlaUv3iZTxDzHLK98Rr0-37" value="false" style="edgeLabel;html=1;align=center;verticalAlign=middle;resizable=0;points=[];" vertex="1" connectable="0" parent="OlaUv3iZTxDzHLK98Rr0-19">
          <mxGeometry x="-0.3087" relative="1" as="geometry">
            <mxPoint as="offset" />
          </mxGeometry>
        </mxCell>
        <mxCell id="OlaUv3iZTxDzHLK98Rr0-14" value="numeri%n==0" style="rhombus;whiteSpace=wrap;html=1;" vertex="1" parent="1">
          <mxGeometry x="380" y="753" width="80" height="80" as="geometry" />
        </mxCell>
        <mxCell id="OlaUv3iZTxDzHLK98Rr0-18" style="edgeStyle=orthogonalEdgeStyle;rounded=0;orthogonalLoop=1;jettySize=auto;html=1;exitX=0;exitY=0.5;exitDx=0;exitDy=0;" edge="1" parent="1" source="OlaUv3iZTxDzHLK98Rr0-16" target="OlaUv3iZTxDzHLK98Rr0-10">
          <mxGeometry relative="1" as="geometry">
            <Array as="points">
              <mxPoint x="310" y="904" />
              <mxPoint x="310" y="510" />
            </Array>
          </mxGeometry>
        </mxCell>
        <mxCell id="OlaUv3iZTxDzHLK98Rr0-16" value="cont1 += 1" style="whiteSpace=wrap;html=1;" vertex="1" parent="1">
          <mxGeometry x="360" y="874" width="120" height="60" as="geometry" />
        </mxCell>
        <mxCell id="OlaUv3iZTxDzHLK98Rr0-25" value="" style="edgeStyle=orthogonalEdgeStyle;rounded=0;orthogonalLoop=1;jettySize=auto;html=1;" edge="1" parent="1" source="OlaUv3iZTxDzHLK98Rr0-20" target="OlaUv3iZTxDzHLK98Rr0-24">
          <mxGeometry relative="1" as="geometry" />
        </mxCell>
        <mxCell id="OlaUv3iZTxDzHLK98Rr0-20" value="write cont1" style="shape=parallelogram;perimeter=parallelogramPerimeter;whiteSpace=wrap;html=1;fixedSize=1;" vertex="1" parent="1">
          <mxGeometry x="510" y="480" width="120" height="60" as="geometry" />
        </mxCell>
        <mxCell id="OlaUv3iZTxDzHLK98Rr0-26" value="" style="edgeStyle=orthogonalEdgeStyle;rounded=0;orthogonalLoop=1;jettySize=auto;html=1;" edge="1" parent="1" source="OlaUv3iZTxDzHLK98Rr0-22" target="OlaUv3iZTxDzHLK98Rr0-20">
          <mxGeometry relative="1" as="geometry" />
        </mxCell>
        <mxCell id="OlaUv3iZTxDzHLK98Rr0-22" value="write &quot;Errore&quot;" style="shape=parallelogram;perimeter=parallelogramPerimeter;whiteSpace=wrap;html=1;fixedSize=1;" vertex="1" parent="1">
          <mxGeometry x="510" y="350" width="120" height="60" as="geometry" />
        </mxCell>
        <mxCell id="OlaUv3iZTxDzHLK98Rr0-28" value="" style="edgeStyle=orthogonalEdgeStyle;rounded=0;orthogonalLoop=1;jettySize=auto;html=1;" edge="1" parent="1" source="OlaUv3iZTxDzHLK98Rr0-24" target="OlaUv3iZTxDzHLK98Rr0-27">
          <mxGeometry relative="1" as="geometry" />
        </mxCell>
        <mxCell id="OlaUv3iZTxDzHLK98Rr0-24" value="" style="shape=waypoint;sketch=0;size=6;pointerEvents=1;points=[];fillColor=none;resizable=0;rotatable=0;perimeter=centerPerimeter;snapToPoint=1;" vertex="1" parent="1">
          <mxGeometry x="560" y="430" width="20" height="20" as="geometry" />
        </mxCell>
        <mxCell id="OlaUv3iZTxDzHLK98Rr0-27" value="end" style="ellipse;whiteSpace=wrap;html=1;" vertex="1" parent="1">
          <mxGeometry x="660" y="400" width="80" height="80" as="geometry" />
        </mxCell>
        <mxCell id="24DjrfcCDRnE8tF-mRnY-3" value="" style="edgeStyle=orthogonalEdgeStyle;rounded=0;orthogonalLoop=1;jettySize=auto;html=1;" edge="1" parent="1" source="24DjrfcCDRnE8tF-mRnY-1" target="OlaUv3iZTxDzHLK98Rr0-14">
          <mxGeometry relative="1" as="geometry" />
        </mxCell>
        <mxCell id="24DjrfcCDRnE8tF-mRnY-1" value="cont += 1" style="whiteSpace=wrap;html=1;" vertex="1" parent="1">
          <mxGeometry x="360" y="670" width="120" height="60" as="geometry" />
        </mxCell>
      </root>
    </mxGraphModel>
  </diagram>
  <diagram id="uqf5jhKOGSbmncJB7Waf" name="lezione3esercizio10">
    <mxGraphModel dx="1604" dy="795" grid="1" gridSize="10" guides="1" tooltips="1" connect="1" arrows="1" fold="1" page="1" pageScale="1" pageWidth="850" pageHeight="1100" math="0" shadow="0">
      <root>
        <mxCell id="0" />
        <mxCell id="1" parent="0" />
        <mxCell id="Qpj5FQTnDNHmk61DYZV1-4" value="" style="edgeStyle=orthogonalEdgeStyle;rounded=0;orthogonalLoop=1;jettySize=auto;html=1;" edge="1" parent="1" source="Qpj5FQTnDNHmk61DYZV1-1" target="Qpj5FQTnDNHmk61DYZV1-3">
          <mxGeometry relative="1" as="geometry" />
        </mxCell>
        <mxCell id="Qpj5FQTnDNHmk61DYZV1-1" value="start" style="ellipse;whiteSpace=wrap;html=1;" vertex="1" parent="1">
          <mxGeometry x="385" y="240" width="80" height="80" as="geometry" />
        </mxCell>
        <mxCell id="Qpj5FQTnDNHmk61DYZV1-2" value="&lt;p&gt;Progettare un algoritmo che richieda all’utente di inserire la sua età.&lt;br&gt;L&#39;algoritmo deve:&lt;/p&gt;&lt;br/&gt;&lt;ul&gt;&lt;li&gt;controllare se l’età è compresa tra 18 e 65 anni. Se sì, mostrare un&lt;br/&gt; messaggio che indica che l’utente può partecipare all’attività;&lt;/li&gt;&lt;li id=&quot;yui_3_18_1_1_1737816132796_383&quot;&gt;se l’età non rientra &lt;br/&gt;nell’intervallo, verificare se è inferiore a 18 oppure maggiore di 65. &lt;br/&gt;Se sì, mostrare un messaggio che indica che l’utente non può partecipare&lt;br/&gt; perché ha superato l&#39;età massima consentita o non ha raggiunto l&#39;età &lt;br/&gt;minima consentita.&lt;/li&gt;&lt;/ul&gt;" style="whiteSpace=wrap;html=1;" vertex="1" parent="1">
          <mxGeometry x="180" y="20" width="490" height="200" as="geometry" />
        </mxCell>
        <mxCell id="Qpj5FQTnDNHmk61DYZV1-8" value="" style="edgeStyle=orthogonalEdgeStyle;rounded=0;orthogonalLoop=1;jettySize=auto;html=1;" edge="1" parent="1" source="Qpj5FQTnDNHmk61DYZV1-3" target="Qpj5FQTnDNHmk61DYZV1-5">
          <mxGeometry relative="1" as="geometry" />
        </mxCell>
        <mxCell id="Qpj5FQTnDNHmk61DYZV1-3" value="read eta" style="shape=parallelogram;perimeter=parallelogramPerimeter;whiteSpace=wrap;html=1;fixedSize=1;" vertex="1" parent="1">
          <mxGeometry x="365" y="353" width="120" height="60" as="geometry" />
        </mxCell>
        <mxCell id="Qpj5FQTnDNHmk61DYZV1-10" value="" style="edgeStyle=orthogonalEdgeStyle;rounded=0;orthogonalLoop=1;jettySize=auto;html=1;" edge="1" parent="1" source="Qpj5FQTnDNHmk61DYZV1-5" target="Qpj5FQTnDNHmk61DYZV1-9">
          <mxGeometry relative="1" as="geometry">
            <Array as="points">
              <mxPoint x="580" y="500" />
            </Array>
          </mxGeometry>
        </mxCell>
        <mxCell id="Qpj5FQTnDNHmk61DYZV1-19" value="true" style="edgeLabel;html=1;align=center;verticalAlign=middle;resizable=0;points=[];" vertex="1" connectable="0" parent="Qpj5FQTnDNHmk61DYZV1-10">
          <mxGeometry x="-0.2" y="-4" relative="1" as="geometry">
            <mxPoint as="offset" />
          </mxGeometry>
        </mxCell>
        <mxCell id="Qpj5FQTnDNHmk61DYZV1-12" style="edgeStyle=orthogonalEdgeStyle;rounded=0;orthogonalLoop=1;jettySize=auto;html=1;entryX=0.5;entryY=0;entryDx=0;entryDy=0;" edge="1" parent="1" source="Qpj5FQTnDNHmk61DYZV1-5" target="Qpj5FQTnDNHmk61DYZV1-13">
          <mxGeometry relative="1" as="geometry">
            <mxPoint x="260" y="530" as="targetPoint" />
            <Array as="points">
              <mxPoint x="270" y="500" />
            </Array>
          </mxGeometry>
        </mxCell>
        <mxCell id="Qpj5FQTnDNHmk61DYZV1-20" value="false" style="edgeLabel;html=1;align=center;verticalAlign=middle;resizable=0;points=[];" vertex="1" connectable="0" parent="Qpj5FQTnDNHmk61DYZV1-12">
          <mxGeometry x="-0.3931" y="5" relative="1" as="geometry">
            <mxPoint as="offset" />
          </mxGeometry>
        </mxCell>
        <mxCell id="Qpj5FQTnDNHmk61DYZV1-5" value="eta &amp;gt;=18 and eta&amp;lt;=65" style="rhombus;whiteSpace=wrap;html=1;" vertex="1" parent="1">
          <mxGeometry x="385" y="460" width="80" height="80" as="geometry" />
        </mxCell>
        <mxCell id="Qpj5FQTnDNHmk61DYZV1-9" value="write &quot;Puoi partecipare all&#39;attivita?&quot;" style="shape=parallelogram;perimeter=parallelogramPerimeter;whiteSpace=wrap;html=1;fixedSize=1;" vertex="1" parent="1">
          <mxGeometry x="520" y="530" width="120" height="60" as="geometry" />
        </mxCell>
        <mxCell id="Qpj5FQTnDNHmk61DYZV1-16" style="edgeStyle=orthogonalEdgeStyle;rounded=0;orthogonalLoop=1;jettySize=auto;html=1;" edge="1" parent="1" source="Qpj5FQTnDNHmk61DYZV1-13" target="Qpj5FQTnDNHmk61DYZV1-15">
          <mxGeometry relative="1" as="geometry" />
        </mxCell>
        <mxCell id="Qpj5FQTnDNHmk61DYZV1-18" value="true" style="edgeLabel;html=1;align=center;verticalAlign=middle;resizable=0;points=[];" vertex="1" connectable="0" parent="Qpj5FQTnDNHmk61DYZV1-16">
          <mxGeometry x="-0.4" y="-4" relative="1" as="geometry">
            <mxPoint as="offset" />
          </mxGeometry>
        </mxCell>
        <mxCell id="Qpj5FQTnDNHmk61DYZV1-17" style="edgeStyle=orthogonalEdgeStyle;rounded=0;orthogonalLoop=1;jettySize=auto;html=1;entryX=0;entryY=0.5;entryDx=0;entryDy=0;" edge="1" parent="1" source="Qpj5FQTnDNHmk61DYZV1-13" target="Qpj5FQTnDNHmk61DYZV1-3">
          <mxGeometry relative="1" as="geometry">
            <Array as="points">
              <mxPoint x="200" y="570" />
              <mxPoint x="200" y="383" />
            </Array>
          </mxGeometry>
        </mxCell>
        <mxCell id="Qpj5FQTnDNHmk61DYZV1-21" value="false" style="edgeLabel;html=1;align=center;verticalAlign=middle;resizable=0;points=[];" vertex="1" connectable="0" parent="Qpj5FQTnDNHmk61DYZV1-17">
          <mxGeometry x="-0.5102" y="-1" relative="1" as="geometry">
            <mxPoint as="offset" />
          </mxGeometry>
        </mxCell>
        <mxCell id="Qpj5FQTnDNHmk61DYZV1-13" value="eta &amp;lt; 18 or eta &amp;gt; 65" style="rhombus;whiteSpace=wrap;html=1;" vertex="1" parent="1">
          <mxGeometry x="230" y="530" width="80" height="80" as="geometry" />
        </mxCell>
        <mxCell id="Qpj5FQTnDNHmk61DYZV1-24" style="edgeStyle=orthogonalEdgeStyle;rounded=0;orthogonalLoop=1;jettySize=auto;html=1;" edge="1" parent="1" source="Qpj5FQTnDNHmk61DYZV1-15">
          <mxGeometry relative="1" as="geometry">
            <mxPoint x="510" y="740" as="targetPoint" />
            <Array as="points">
              <mxPoint x="390" y="740" />
            </Array>
          </mxGeometry>
        </mxCell>
        <mxCell id="Qpj5FQTnDNHmk61DYZV1-15" value="write &quot;Non puoi partecipare all&#39;attivita?&quot;" style="shape=parallelogram;perimeter=parallelogramPerimeter;whiteSpace=wrap;html=1;fixedSize=1;" vertex="1" parent="1">
          <mxGeometry x="330" y="620" width="120" height="60" as="geometry" />
        </mxCell>
        <mxCell id="Qpj5FQTnDNHmk61DYZV1-26" value="" style="edgeStyle=orthogonalEdgeStyle;rounded=0;orthogonalLoop=1;jettySize=auto;html=1;" edge="1" parent="1" source="Qpj5FQTnDNHmk61DYZV1-22" target="Qpj5FQTnDNHmk61DYZV1-25">
          <mxGeometry relative="1" as="geometry" />
        </mxCell>
        <mxCell id="Qpj5FQTnDNHmk61DYZV1-22" value="" style="shape=waypoint;sketch=0;size=6;pointerEvents=1;points=[];fillColor=none;resizable=0;rotatable=0;perimeter=centerPerimeter;snapToPoint=1;" vertex="1" parent="1">
          <mxGeometry x="490" y="730" width="20" height="20" as="geometry" />
        </mxCell>
        <mxCell id="Qpj5FQTnDNHmk61DYZV1-23" style="edgeStyle=orthogonalEdgeStyle;rounded=0;orthogonalLoop=1;jettySize=auto;html=1;entryX=1;entryY=0;entryDx=0;entryDy=0;entryPerimeter=0;" edge="1" parent="1" source="Qpj5FQTnDNHmk61DYZV1-9" target="Qpj5FQTnDNHmk61DYZV1-22">
          <mxGeometry relative="1" as="geometry">
            <Array as="points">
              <mxPoint x="580" y="740" />
            </Array>
          </mxGeometry>
        </mxCell>
        <mxCell id="Qpj5FQTnDNHmk61DYZV1-25" value="end" style="ellipse;whiteSpace=wrap;html=1;" vertex="1" parent="1">
          <mxGeometry x="460" y="780" width="80" height="80" as="geometry" />
        </mxCell>
      </root>
    </mxGraphModel>
  </diagram>
  <diagram id="hq-QrJPvSdyGuUtOshoa" name="lezione3esercizio11">
    <mxGraphModel dx="1142" dy="553" grid="1" gridSize="10" guides="1" tooltips="1" connect="1" arrows="1" fold="1" page="1" pageScale="1" pageWidth="850" pageHeight="1100" math="0" shadow="0">
      <root>
        <mxCell id="0" />
        <mxCell id="1" parent="0" />
        <mxCell id="BQYKeXwmL7-jPfg-0bIk-1" value="&lt;p&gt;Progettare un algoritmo che richieda all’utente di inserire un valore intero.&lt;br&gt;Il programma deve verificare:&lt;/p&gt;&lt;br/&gt;&lt;ul&gt;&lt;li&gt;se il numero è pari e maggiore di 10. Se sì, mostrare “Numero valido”;&lt;/li&gt;&lt;li&gt;se il numero è dispari o minore o uguale a 10.&amp;nbsp;Se sì, mostrare “Numero non valido”.&lt;/li&gt;&lt;/ul&gt;" style="whiteSpace=wrap;html=1;" vertex="1" parent="1">
          <mxGeometry x="240" y="20" width="360" height="160" as="geometry" />
        </mxCell>
        <mxCell id="BQYKeXwmL7-jPfg-0bIk-6" value="" style="edgeStyle=orthogonalEdgeStyle;rounded=0;orthogonalLoop=1;jettySize=auto;html=1;" edge="1" parent="1" source="BQYKeXwmL7-jPfg-0bIk-2" target="BQYKeXwmL7-jPfg-0bIk-3">
          <mxGeometry relative="1" as="geometry" />
        </mxCell>
        <mxCell id="BQYKeXwmL7-jPfg-0bIk-2" value="star" style="ellipse;whiteSpace=wrap;html=1;" vertex="1" parent="1">
          <mxGeometry x="380" y="220" width="80" height="80" as="geometry" />
        </mxCell>
        <mxCell id="BQYKeXwmL7-jPfg-0bIk-7" value="" style="edgeStyle=orthogonalEdgeStyle;rounded=0;orthogonalLoop=1;jettySize=auto;html=1;" edge="1" parent="1" source="BQYKeXwmL7-jPfg-0bIk-3" target="BQYKeXwmL7-jPfg-0bIk-4">
          <mxGeometry relative="1" as="geometry" />
        </mxCell>
        <mxCell id="BQYKeXwmL7-jPfg-0bIk-3" value="read v" style="shape=parallelogram;perimeter=parallelogramPerimeter;whiteSpace=wrap;html=1;fixedSize=1;" vertex="1" parent="1">
          <mxGeometry x="360" y="330" width="120" height="60" as="geometry" />
        </mxCell>
        <mxCell id="BQYKeXwmL7-jPfg-0bIk-5" style="edgeStyle=orthogonalEdgeStyle;rounded=0;orthogonalLoop=1;jettySize=auto;html=1;exitX=0;exitY=0.5;exitDx=0;exitDy=0;" edge="1" parent="1" source="BQYKeXwmL7-jPfg-0bIk-4" target="BQYKeXwmL7-jPfg-0bIk-3">
          <mxGeometry relative="1" as="geometry">
            <Array as="points">
              <mxPoint x="320" y="460" />
              <mxPoint x="320" y="360" />
            </Array>
          </mxGeometry>
        </mxCell>
        <mxCell id="bRpRIllIvYDGJy-t5-P3-14" value="false" style="edgeLabel;html=1;align=center;verticalAlign=middle;resizable=0;points=[];" vertex="1" connectable="0" parent="BQYKeXwmL7-jPfg-0bIk-5">
          <mxGeometry x="-0.7515" y="-3" relative="1" as="geometry">
            <mxPoint as="offset" />
          </mxGeometry>
        </mxCell>
        <mxCell id="BQYKeXwmL7-jPfg-0bIk-9" value="" style="edgeStyle=orthogonalEdgeStyle;rounded=0;orthogonalLoop=1;jettySize=auto;html=1;" edge="1" parent="1" source="BQYKeXwmL7-jPfg-0bIk-4" target="BQYKeXwmL7-jPfg-0bIk-8">
          <mxGeometry relative="1" as="geometry" />
        </mxCell>
        <mxCell id="bRpRIllIvYDGJy-t5-P3-13" value="true" style="edgeLabel;html=1;align=center;verticalAlign=middle;resizable=0;points=[];" vertex="1" connectable="0" parent="BQYKeXwmL7-jPfg-0bIk-9">
          <mxGeometry x="-0.5846" y="-5" relative="1" as="geometry">
            <mxPoint y="-5" as="offset" />
          </mxGeometry>
        </mxCell>
        <mxCell id="BQYKeXwmL7-jPfg-0bIk-4" value="v%1==0" style="rhombus;whiteSpace=wrap;html=1;" vertex="1" parent="1">
          <mxGeometry x="380" y="420" width="80" height="80" as="geometry" />
        </mxCell>
        <mxCell id="BQYKeXwmL7-jPfg-0bIk-11" style="edgeStyle=orthogonalEdgeStyle;rounded=0;orthogonalLoop=1;jettySize=auto;html=1;entryX=0.5;entryY=0;entryDx=0;entryDy=0;" edge="1" parent="1" source="BQYKeXwmL7-jPfg-0bIk-8" target="BQYKeXwmL7-jPfg-0bIk-10">
          <mxGeometry relative="1" as="geometry" />
        </mxCell>
        <mxCell id="bRpRIllIvYDGJy-t5-P3-15" value="true" style="edgeLabel;html=1;align=center;verticalAlign=middle;resizable=0;points=[];" vertex="1" connectable="0" parent="BQYKeXwmL7-jPfg-0bIk-11">
          <mxGeometry x="-0.4923" relative="1" as="geometry">
            <mxPoint as="offset" />
          </mxGeometry>
        </mxCell>
        <mxCell id="GWboo4NED2jpnwh-LKzW-2" value="" style="edgeStyle=orthogonalEdgeStyle;rounded=0;orthogonalLoop=1;jettySize=auto;html=1;" edge="1" parent="1" source="BQYKeXwmL7-jPfg-0bIk-8" target="GWboo4NED2jpnwh-LKzW-1">
          <mxGeometry relative="1" as="geometry">
            <Array as="points">
              <mxPoint x="425" y="550" />
            </Array>
          </mxGeometry>
        </mxCell>
        <mxCell id="bRpRIllIvYDGJy-t5-P3-16" value="false" style="edgeLabel;html=1;align=center;verticalAlign=middle;resizable=0;points=[];" vertex="1" connectable="0" parent="GWboo4NED2jpnwh-LKzW-2">
          <mxGeometry x="-0.4435" y="2" relative="1" as="geometry">
            <mxPoint as="offset" />
          </mxGeometry>
        </mxCell>
        <mxCell id="BQYKeXwmL7-jPfg-0bIk-8" value="&lt;div&gt;v%2==0 and&amp;nbsp;&lt;/div&gt;&lt;div&gt;v &amp;gt; 10&lt;/div&gt;" style="rhombus;whiteSpace=wrap;html=1;" vertex="1" parent="1">
          <mxGeometry x="500" y="510" width="80" height="80" as="geometry" />
        </mxCell>
        <mxCell id="3cY4iOTb3mU0BzriMc0O-5" value="" style="edgeStyle=orthogonalEdgeStyle;rounded=0;orthogonalLoop=1;jettySize=auto;html=1;" edge="1" parent="1" source="BQYKeXwmL7-jPfg-0bIk-10" target="3cY4iOTb3mU0BzriMc0O-3">
          <mxGeometry relative="1" as="geometry" />
        </mxCell>
        <mxCell id="BQYKeXwmL7-jPfg-0bIk-10" value="write &quot;Numero Valido&quot;" style="shape=parallelogram;perimeter=parallelogramPerimeter;whiteSpace=wrap;html=1;fixedSize=1;" vertex="1" parent="1">
          <mxGeometry x="600" y="600" width="120" height="60" as="geometry" />
        </mxCell>
        <mxCell id="bRpRIllIvYDGJy-t5-P3-2" style="edgeStyle=orthogonalEdgeStyle;rounded=0;orthogonalLoop=1;jettySize=auto;html=1;entryX=0.5;entryY=0;entryDx=0;entryDy=0;" edge="1" parent="1" source="GWboo4NED2jpnwh-LKzW-1" target="bRpRIllIvYDGJy-t5-P3-1">
          <mxGeometry relative="1" as="geometry" />
        </mxCell>
        <mxCell id="bRpRIllIvYDGJy-t5-P3-17" value="true" style="edgeLabel;html=1;align=center;verticalAlign=middle;resizable=0;points=[];" vertex="1" connectable="0" parent="bRpRIllIvYDGJy-t5-P3-2">
          <mxGeometry x="-0.3565" y="-1" relative="1" as="geometry">
            <mxPoint as="offset" />
          </mxGeometry>
        </mxCell>
        <mxCell id="GWboo4NED2jpnwh-LKzW-1" value="v%2!=0 or v &amp;lt; 10 or v == 10" style="rhombus;whiteSpace=wrap;html=1;" vertex="1" parent="1">
          <mxGeometry x="385" y="590" width="80" height="80" as="geometry" />
        </mxCell>
        <mxCell id="bRpRIllIvYDGJy-t5-P3-1" value="write &quot;Numero non valido&quot;" style="shape=parallelogram;perimeter=parallelogramPerimeter;whiteSpace=wrap;html=1;fixedSize=1;" vertex="1" parent="1">
          <mxGeometry x="250" y="670" width="120" height="60" as="geometry" />
        </mxCell>
        <mxCell id="bRpRIllIvYDGJy-t5-P3-11" value="" style="edgeStyle=orthogonalEdgeStyle;rounded=0;orthogonalLoop=1;jettySize=auto;html=1;" edge="1" parent="1" source="bRpRIllIvYDGJy-t5-P3-3" target="bRpRIllIvYDGJy-t5-P3-9">
          <mxGeometry relative="1" as="geometry" />
        </mxCell>
        <mxCell id="bRpRIllIvYDGJy-t5-P3-3" value="" style="shape=waypoint;sketch=0;size=6;pointerEvents=1;points=[];fillColor=none;resizable=0;rotatable=0;perimeter=centerPerimeter;snapToPoint=1;" vertex="1" parent="1">
          <mxGeometry x="530" y="750" width="20" height="20" as="geometry" />
        </mxCell>
        <mxCell id="bRpRIllIvYDGJy-t5-P3-4" style="edgeStyle=orthogonalEdgeStyle;rounded=0;orthogonalLoop=1;jettySize=auto;html=1;entryX=0.5;entryY=1.05;entryDx=0;entryDy=0;entryPerimeter=0;" edge="1" parent="1" source="GWboo4NED2jpnwh-LKzW-1" target="bRpRIllIvYDGJy-t5-P3-3">
          <mxGeometry relative="1" as="geometry" />
        </mxCell>
        <mxCell id="bRpRIllIvYDGJy-t5-P3-18" value="false" style="edgeLabel;html=1;align=center;verticalAlign=middle;resizable=0;points=[];" vertex="1" connectable="0" parent="bRpRIllIvYDGJy-t5-P3-4">
          <mxGeometry x="-0.5707" relative="1" as="geometry">
            <mxPoint x="-9" as="offset" />
          </mxGeometry>
        </mxCell>
        <mxCell id="bRpRIllIvYDGJy-t5-P3-7" value="end" style="ellipse;whiteSpace=wrap;html=1;" vertex="1" parent="1">
          <mxGeometry x="620" y="830" width="80" height="80" as="geometry" />
        </mxCell>
        <mxCell id="bRpRIllIvYDGJy-t5-P3-9" value="" style="shape=waypoint;sketch=0;size=6;pointerEvents=1;points=[];fillColor=none;resizable=0;rotatable=0;perimeter=centerPerimeter;snapToPoint=1;" vertex="1" parent="1">
          <mxGeometry x="350" y="750" width="20" height="20" as="geometry" />
        </mxCell>
        <mxCell id="bRpRIllIvYDGJy-t5-P3-10" style="edgeStyle=orthogonalEdgeStyle;rounded=0;orthogonalLoop=1;jettySize=auto;html=1;entryX=0.1;entryY=0.7;entryDx=0;entryDy=0;entryPerimeter=0;" edge="1" parent="1" source="bRpRIllIvYDGJy-t5-P3-1" target="bRpRIllIvYDGJy-t5-P3-9">
          <mxGeometry relative="1" as="geometry">
            <Array as="points">
              <mxPoint x="310" y="760" />
            </Array>
          </mxGeometry>
        </mxCell>
        <mxCell id="3cY4iOTb3mU0BzriMc0O-4" value="" style="edgeStyle=orthogonalEdgeStyle;rounded=0;orthogonalLoop=1;jettySize=auto;html=1;" edge="1" parent="1" source="bRpRIllIvYDGJy-t5-P3-9" target="3cY4iOTb3mU0BzriMc0O-3">
          <mxGeometry relative="1" as="geometry">
            <mxPoint x="360" y="760" as="sourcePoint" />
            <mxPoint x="660" y="840" as="targetPoint" />
            <Array as="points" />
          </mxGeometry>
        </mxCell>
        <mxCell id="3cY4iOTb3mU0BzriMc0O-6" value="" style="edgeStyle=orthogonalEdgeStyle;rounded=0;orthogonalLoop=1;jettySize=auto;html=1;" edge="1" parent="1" source="3cY4iOTb3mU0BzriMc0O-3" target="bRpRIllIvYDGJy-t5-P3-7">
          <mxGeometry relative="1" as="geometry" />
        </mxCell>
        <mxCell id="3cY4iOTb3mU0BzriMc0O-3" value="" style="shape=waypoint;sketch=0;size=6;pointerEvents=1;points=[];fillColor=none;resizable=0;rotatable=0;perimeter=centerPerimeter;snapToPoint=1;" vertex="1" parent="1">
          <mxGeometry x="650" y="750" width="20" height="20" as="geometry" />
        </mxCell>
      </root>
    </mxGraphModel>
  </diagram>
  <diagram id="4rkJsodNG8JKVwVQSYj7" name="lezione3esercizio12">
    <mxGraphModel dx="1344" dy="651" grid="1" gridSize="10" guides="1" tooltips="1" connect="1" arrows="1" fold="1" page="1" pageScale="1" pageWidth="850" pageHeight="1100" math="0" shadow="0">
      <root>
        <mxCell id="0" />
        <mxCell id="1" parent="0" />
        <mxCell id="oJanC6ULMeYc8DPi6FuF-1" value="&lt;p&gt;Progettare un algoritmo che richieda all’utente di inserire un numero variabile&amp;nbsp;&lt;em&gt;n &lt;/em&gt;di valori&amp;nbsp;&lt;em&gt;x &lt;/em&gt;e &lt;em&gt;y&lt;/em&gt;. L&#39;algoritmo&amp;nbsp;deve:&lt;/p&gt;&lt;br/&gt;&lt;ul&gt;&lt;li&gt;calcolare il prodotto di x e y solo se entrambi i valori sono positivi;&lt;/li&gt;&lt;li&gt;calcolare la somma di x e y solo se uno dei due valori è negativo;&lt;/li&gt;&lt;li&gt;mostrare il risultato dell’operazione effettuata o un messaggio di errore se entrambe le condizioni falliscono.&lt;/li&gt;&lt;/ul&gt;" style="whiteSpace=wrap;html=1;" vertex="1" parent="1">
          <mxGeometry x="230" y="50" width="390" height="170" as="geometry" />
        </mxCell>
        <mxCell id="oJanC6ULMeYc8DPi6FuF-4" value="" style="edgeStyle=orthogonalEdgeStyle;rounded=0;orthogonalLoop=1;jettySize=auto;html=1;" edge="1" parent="1" source="oJanC6ULMeYc8DPi6FuF-2" target="oJanC6ULMeYc8DPi6FuF-3">
          <mxGeometry relative="1" as="geometry" />
        </mxCell>
        <mxCell id="oJanC6ULMeYc8DPi6FuF-2" value="start" style="ellipse;whiteSpace=wrap;html=1;" vertex="1" parent="1">
          <mxGeometry x="380" y="240" width="80" height="80" as="geometry" />
        </mxCell>
        <mxCell id="oJanC6ULMeYc8DPi6FuF-13" value="" style="edgeStyle=orthogonalEdgeStyle;rounded=0;orthogonalLoop=1;jettySize=auto;html=1;" edge="1" parent="1" source="oJanC6ULMeYc8DPi6FuF-3" target="oJanC6ULMeYc8DPi6FuF-11">
          <mxGeometry relative="1" as="geometry" />
        </mxCell>
        <mxCell id="oJanC6ULMeYc8DPi6FuF-3" value="read n" style="shape=parallelogram;perimeter=parallelogramPerimeter;whiteSpace=wrap;html=1;fixedSize=1;" vertex="1" parent="1">
          <mxGeometry x="360" y="350" width="120" height="60" as="geometry" />
        </mxCell>
        <mxCell id="oJanC6ULMeYc8DPi6FuF-7" style="edgeStyle=orthogonalEdgeStyle;rounded=0;orthogonalLoop=1;jettySize=auto;html=1;" edge="1" parent="1" source="oJanC6ULMeYc8DPi6FuF-5" target="oJanC6ULMeYc8DPi6FuF-3">
          <mxGeometry relative="1" as="geometry">
            <mxPoint x="340" y="370" as="targetPoint" />
            <Array as="points">
              <mxPoint x="341" y="560" />
              <mxPoint x="341" y="380" />
            </Array>
          </mxGeometry>
        </mxCell>
        <mxCell id="oJanC6ULMeYc8DPi6FuF-57" value="false" style="edgeLabel;html=1;align=center;verticalAlign=middle;resizable=0;points=[];" vertex="1" connectable="0" parent="oJanC6ULMeYc8DPi6FuF-7">
          <mxGeometry x="-0.4886" y="-1" relative="1" as="geometry">
            <mxPoint as="offset" />
          </mxGeometry>
        </mxCell>
        <mxCell id="oJanC6ULMeYc8DPi6FuF-9" value="" style="edgeStyle=orthogonalEdgeStyle;rounded=0;orthogonalLoop=1;jettySize=auto;html=1;" edge="1" parent="1" source="oJanC6ULMeYc8DPi6FuF-5" target="oJanC6ULMeYc8DPi6FuF-8">
          <mxGeometry relative="1" as="geometry" />
        </mxCell>
        <mxCell id="oJanC6ULMeYc8DPi6FuF-56" value="true" style="edgeLabel;html=1;align=center;verticalAlign=middle;resizable=0;points=[];" vertex="1" connectable="0" parent="oJanC6ULMeYc8DPi6FuF-9">
          <mxGeometry x="-0.2899" y="-6" relative="1" as="geometry">
            <mxPoint as="offset" />
          </mxGeometry>
        </mxCell>
        <mxCell id="oJanC6ULMeYc8DPi6FuF-5" value="n &amp;gt;= 0 and n%1==0" style="rhombus;whiteSpace=wrap;html=1;" vertex="1" parent="1">
          <mxGeometry x="380" y="519" width="80" height="80" as="geometry" />
        </mxCell>
        <mxCell id="oJanC6ULMeYc8DPi6FuF-17" value="" style="edgeStyle=orthogonalEdgeStyle;rounded=0;orthogonalLoop=1;jettySize=auto;html=1;" edge="1" parent="1" source="oJanC6ULMeYc8DPi6FuF-8" target="oJanC6ULMeYc8DPi6FuF-16">
          <mxGeometry relative="1" as="geometry" />
        </mxCell>
        <mxCell id="oJanC6ULMeYc8DPi6FuF-55" value="true" style="edgeLabel;html=1;align=center;verticalAlign=middle;resizable=0;points=[];" vertex="1" connectable="0" parent="oJanC6ULMeYc8DPi6FuF-17">
          <mxGeometry x="-0.04" y="5" relative="1" as="geometry">
            <mxPoint y="-1" as="offset" />
          </mxGeometry>
        </mxCell>
        <mxCell id="oJanC6ULMeYc8DPi6FuF-46" value="" style="edgeStyle=orthogonalEdgeStyle;rounded=0;orthogonalLoop=1;jettySize=auto;html=1;" edge="1" parent="1" source="i28wu9x68Uowz82XUIkt-1">
          <mxGeometry relative="1" as="geometry">
            <mxPoint x="840" y="760" as="targetPoint" />
            <Array as="points">
              <mxPoint x="840" y="648" />
              <mxPoint x="840" y="760" />
            </Array>
          </mxGeometry>
        </mxCell>
        <mxCell id="oJanC6ULMeYc8DPi6FuF-8" value="cont &amp;lt; n" style="rhombus;whiteSpace=wrap;html=1;" vertex="1" parent="1">
          <mxGeometry x="540" y="608" width="80" height="80" as="geometry" />
        </mxCell>
        <mxCell id="oJanC6ULMeYc8DPi6FuF-15" style="edgeStyle=orthogonalEdgeStyle;rounded=0;orthogonalLoop=1;jettySize=auto;html=1;exitX=0.5;exitY=1;exitDx=0;exitDy=0;" edge="1" parent="1" source="oJanC6ULMeYc8DPi6FuF-11" target="oJanC6ULMeYc8DPi6FuF-5">
          <mxGeometry relative="1" as="geometry" />
        </mxCell>
        <mxCell id="oJanC6ULMeYc8DPi6FuF-11" value="cont = 0, p = 0, s = 0" style="whiteSpace=wrap;html=1;" vertex="1" parent="1">
          <mxGeometry x="360" y="443" width="120" height="60" as="geometry" />
        </mxCell>
        <mxCell id="oJanC6ULMeYc8DPi6FuF-12" value="" style="edgeStyle=orthogonalEdgeStyle;rounded=0;orthogonalLoop=1;jettySize=auto;html=1;" edge="1" parent="1" source="oJanC6ULMeYc8DPi6FuF-10" target="oJanC6ULMeYc8DPi6FuF-11">
          <mxGeometry relative="1" as="geometry" />
        </mxCell>
        <mxCell id="oJanC6ULMeYc8DPi6FuF-19" value="" style="edgeStyle=orthogonalEdgeStyle;rounded=0;orthogonalLoop=1;jettySize=auto;html=1;" edge="1" parent="1" source="oJanC6ULMeYc8DPi6FuF-16" target="oJanC6ULMeYc8DPi6FuF-18">
          <mxGeometry relative="1" as="geometry" />
        </mxCell>
        <mxCell id="oJanC6ULMeYc8DPi6FuF-16" value="read x" style="shape=parallelogram;perimeter=parallelogramPerimeter;whiteSpace=wrap;html=1;fixedSize=1;" vertex="1" parent="1">
          <mxGeometry x="520" y="738" width="120" height="60" as="geometry" />
        </mxCell>
        <mxCell id="oJanC6ULMeYc8DPi6FuF-21" value="" style="edgeStyle=orthogonalEdgeStyle;rounded=0;orthogonalLoop=1;jettySize=auto;html=1;" edge="1" parent="1" source="oJanC6ULMeYc8DPi6FuF-18" target="oJanC6ULMeYc8DPi6FuF-20">
          <mxGeometry relative="1" as="geometry" />
        </mxCell>
        <mxCell id="oJanC6ULMeYc8DPi6FuF-18" value="write y" style="shape=parallelogram;perimeter=parallelogramPerimeter;whiteSpace=wrap;html=1;fixedSize=1;" vertex="1" parent="1">
          <mxGeometry x="520" y="833" width="120" height="60" as="geometry" />
        </mxCell>
        <mxCell id="oJanC6ULMeYc8DPi6FuF-23" value="" style="edgeStyle=orthogonalEdgeStyle;rounded=0;orthogonalLoop=1;jettySize=auto;html=1;" edge="1" parent="1" source="oJanC6ULMeYc8DPi6FuF-20" target="oJanC6ULMeYc8DPi6FuF-22">
          <mxGeometry relative="1" as="geometry" />
        </mxCell>
        <mxCell id="oJanC6ULMeYc8DPi6FuF-59" value="true" style="edgeLabel;html=1;align=center;verticalAlign=middle;resizable=0;points=[];" vertex="1" connectable="0" parent="oJanC6ULMeYc8DPi6FuF-23">
          <mxGeometry x="-0.4828" y="-5" relative="1" as="geometry">
            <mxPoint as="offset" />
          </mxGeometry>
        </mxCell>
        <mxCell id="oJanC6ULMeYc8DPi6FuF-25" value="" style="edgeStyle=orthogonalEdgeStyle;rounded=0;orthogonalLoop=1;jettySize=auto;html=1;" edge="1" parent="1" source="oJanC6ULMeYc8DPi6FuF-20" target="oJanC6ULMeYc8DPi6FuF-24">
          <mxGeometry relative="1" as="geometry" />
        </mxCell>
        <mxCell id="oJanC6ULMeYc8DPi6FuF-65" value="false" style="edgeLabel;html=1;align=center;verticalAlign=middle;resizable=0;points=[];" vertex="1" connectable="0" parent="oJanC6ULMeYc8DPi6FuF-25">
          <mxGeometry x="-0.5212" y="2" relative="1" as="geometry">
            <mxPoint as="offset" />
          </mxGeometry>
        </mxCell>
        <mxCell id="oJanC6ULMeYc8DPi6FuF-20" value="x&amp;gt;0 and y&amp;gt;0" style="rhombus;whiteSpace=wrap;html=1;" vertex="1" parent="1">
          <mxGeometry x="540" y="936" width="80" height="80" as="geometry" />
        </mxCell>
        <mxCell id="oJanC6ULMeYc8DPi6FuF-70" value="" style="edgeStyle=orthogonalEdgeStyle;rounded=0;orthogonalLoop=1;jettySize=auto;html=1;" edge="1" parent="1" source="oJanC6ULMeYc8DPi6FuF-22" target="oJanC6ULMeYc8DPi6FuF-69">
          <mxGeometry relative="1" as="geometry" />
        </mxCell>
        <mxCell id="oJanC6ULMeYc8DPi6FuF-22" value="p=x*y" style="whiteSpace=wrap;html=1;" vertex="1" parent="1">
          <mxGeometry x="680" y="1030" width="120" height="60" as="geometry" />
        </mxCell>
        <mxCell id="oJanC6ULMeYc8DPi6FuF-27" value="" style="edgeStyle=orthogonalEdgeStyle;rounded=0;orthogonalLoop=1;jettySize=auto;html=1;" edge="1" parent="1" source="oJanC6ULMeYc8DPi6FuF-24" target="oJanC6ULMeYc8DPi6FuF-26">
          <mxGeometry relative="1" as="geometry" />
        </mxCell>
        <mxCell id="oJanC6ULMeYc8DPi6FuF-61" value="true" style="edgeLabel;html=1;align=center;verticalAlign=middle;resizable=0;points=[];" vertex="1" connectable="0" parent="oJanC6ULMeYc8DPi6FuF-27">
          <mxGeometry x="-0.4183" y="-3" relative="1" as="geometry">
            <mxPoint as="offset" />
          </mxGeometry>
        </mxCell>
        <mxCell id="oJanC6ULMeYc8DPi6FuF-63" style="edgeStyle=orthogonalEdgeStyle;rounded=0;orthogonalLoop=1;jettySize=auto;html=1;" edge="1" parent="1" source="oJanC6ULMeYc8DPi6FuF-24" target="oJanC6ULMeYc8DPi6FuF-28">
          <mxGeometry relative="1" as="geometry" />
        </mxCell>
        <mxCell id="oJanC6ULMeYc8DPi6FuF-64" value="false" style="edgeLabel;html=1;align=center;verticalAlign=middle;resizable=0;points=[];" vertex="1" connectable="0" parent="oJanC6ULMeYc8DPi6FuF-63">
          <mxGeometry x="-0.3519" y="1" relative="1" as="geometry">
            <mxPoint as="offset" />
          </mxGeometry>
        </mxCell>
        <mxCell id="oJanC6ULMeYc8DPi6FuF-24" value="x&amp;lt;0 or y&amp;lt;0" style="rhombus;whiteSpace=wrap;html=1;" vertex="1" parent="1">
          <mxGeometry x="400" y="1020" width="80" height="80" as="geometry" />
        </mxCell>
        <mxCell id="oJanC6ULMeYc8DPi6FuF-67" value="" style="edgeStyle=orthogonalEdgeStyle;rounded=0;orthogonalLoop=1;jettySize=auto;html=1;" edge="1" parent="1" source="oJanC6ULMeYc8DPi6FuF-26" target="oJanC6ULMeYc8DPi6FuF-66">
          <mxGeometry relative="1" as="geometry" />
        </mxCell>
        <mxCell id="oJanC6ULMeYc8DPi6FuF-26" value="s=x+y" style="whiteSpace=wrap;html=1;" vertex="1" parent="1">
          <mxGeometry x="519" y="1110" width="120" height="60" as="geometry" />
        </mxCell>
        <mxCell id="oJanC6ULMeYc8DPi6FuF-50" value="" style="edgeStyle=orthogonalEdgeStyle;rounded=0;orthogonalLoop=1;jettySize=auto;html=1;" edge="1" parent="1" source="oJanC6ULMeYc8DPi6FuF-28" target="oJanC6ULMeYc8DPi6FuF-49">
          <mxGeometry relative="1" as="geometry" />
        </mxCell>
        <mxCell id="oJanC6ULMeYc8DPi6FuF-28" value="write &quot;Error&quot;" style="shape=parallelogram;perimeter=parallelogramPerimeter;whiteSpace=wrap;html=1;fixedSize=1;" vertex="1" parent="1">
          <mxGeometry x="210" y="1110" width="120" height="60" as="geometry" />
        </mxCell>
        <mxCell id="oJanC6ULMeYc8DPi6FuF-37" value="" style="edgeStyle=orthogonalEdgeStyle;rounded=0;orthogonalLoop=1;jettySize=auto;html=1;" edge="1" parent="1" source="oJanC6ULMeYc8DPi6FuF-33" target="oJanC6ULMeYc8DPi6FuF-36">
          <mxGeometry relative="1" as="geometry" />
        </mxCell>
        <mxCell id="oJanC6ULMeYc8DPi6FuF-33" value="" style="shape=waypoint;sketch=0;size=6;pointerEvents=1;points=[];fillColor=none;resizable=0;rotatable=0;perimeter=centerPerimeter;snapToPoint=1;" vertex="1" parent="1">
          <mxGeometry x="570" y="1280" width="20" height="20" as="geometry" />
        </mxCell>
        <mxCell id="oJanC6ULMeYc8DPi6FuF-39" value="" style="edgeStyle=orthogonalEdgeStyle;rounded=0;orthogonalLoop=1;jettySize=auto;html=1;" edge="1" parent="1" source="oJanC6ULMeYc8DPi6FuF-36" target="oJanC6ULMeYc8DPi6FuF-38">
          <mxGeometry relative="1" as="geometry" />
        </mxCell>
        <mxCell id="oJanC6ULMeYc8DPi6FuF-36" value="cont += 1" style="whiteSpace=wrap;html=1;fillColor=none;sketch=0;pointerEvents=1;resizable=0;" vertex="1" parent="1">
          <mxGeometry x="521" y="1330" width="120" height="60" as="geometry" />
        </mxCell>
        <mxCell id="oJanC6ULMeYc8DPi6FuF-41" value="" style="edgeStyle=orthogonalEdgeStyle;rounded=0;orthogonalLoop=1;jettySize=auto;html=1;" edge="1" parent="1" source="oJanC6ULMeYc8DPi6FuF-38" target="oJanC6ULMeYc8DPi6FuF-40">
          <mxGeometry relative="1" as="geometry" />
        </mxCell>
        <mxCell id="oJanC6ULMeYc8DPi6FuF-38" value="" style="shape=waypoint;sketch=0;size=6;pointerEvents=1;points=[];fillColor=none;resizable=0;rotatable=0;perimeter=centerPerimeter;snapToPoint=1;" vertex="1" parent="1">
          <mxGeometry x="571" y="1430" width="20" height="20" as="geometry" />
        </mxCell>
        <mxCell id="oJanC6ULMeYc8DPi6FuF-43" value="" style="edgeStyle=orthogonalEdgeStyle;rounded=0;orthogonalLoop=1;jettySize=auto;html=1;" edge="1" parent="1">
          <mxGeometry relative="1" as="geometry">
            <mxPoint x="130" y="1441" as="sourcePoint" />
            <mxPoint x="130" y="649" as="targetPoint" />
            <Array as="points">
              <mxPoint x="120" y="1441" />
              <mxPoint x="120" y="649" />
            </Array>
          </mxGeometry>
        </mxCell>
        <mxCell id="oJanC6ULMeYc8DPi6FuF-40" value="" style="shape=waypoint;sketch=0;size=6;pointerEvents=1;points=[];fillColor=none;resizable=0;rotatable=0;perimeter=centerPerimeter;snapToPoint=1;" vertex="1" parent="1">
          <mxGeometry x="120" y="1430" width="20" height="20" as="geometry" />
        </mxCell>
        <mxCell id="oJanC6ULMeYc8DPi6FuF-42" value="" style="shape=waypoint;sketch=0;size=6;pointerEvents=1;points=[];fillColor=none;resizable=0;rotatable=0;perimeter=centerPerimeter;snapToPoint=1;" vertex="1" parent="1">
          <mxGeometry x="120" y="637" width="20" height="20" as="geometry" />
        </mxCell>
        <mxCell id="oJanC6ULMeYc8DPi6FuF-44" style="edgeStyle=orthogonalEdgeStyle;rounded=0;orthogonalLoop=1;jettySize=auto;html=1;entryX=0;entryY=0.5;entryDx=0;entryDy=0;" edge="1" parent="1" source="oJanC6ULMeYc8DPi6FuF-42" target="oJanC6ULMeYc8DPi6FuF-8">
          <mxGeometry relative="1" as="geometry">
            <mxPoint x="500" y="670" as="targetPoint" />
            <Array as="points">
              <mxPoint x="510" y="648" />
            </Array>
          </mxGeometry>
        </mxCell>
        <mxCell id="oJanC6ULMeYc8DPi6FuF-47" value="end" style="ellipse;whiteSpace=wrap;html=1;" vertex="1" parent="1">
          <mxGeometry x="940" y="718" width="80" height="80" as="geometry" />
        </mxCell>
        <mxCell id="oJanC6ULMeYc8DPi6FuF-52" value="" style="edgeStyle=orthogonalEdgeStyle;rounded=0;orthogonalLoop=1;jettySize=auto;html=1;" edge="1" parent="1" source="oJanC6ULMeYc8DPi6FuF-49" target="oJanC6ULMeYc8DPi6FuF-51">
          <mxGeometry relative="1" as="geometry" />
        </mxCell>
        <mxCell id="oJanC6ULMeYc8DPi6FuF-49" value="" style="shape=waypoint;sketch=0;size=6;pointerEvents=1;points=[];fillColor=default;resizable=0;rotatable=0;perimeter=centerPerimeter;snapToPoint=1;" vertex="1" parent="1">
          <mxGeometry x="260" y="1500" width="20" height="20" as="geometry" />
        </mxCell>
        <mxCell id="oJanC6ULMeYc8DPi6FuF-53" style="edgeStyle=orthogonalEdgeStyle;rounded=0;orthogonalLoop=1;jettySize=auto;html=1;entryX=0.653;entryY=0.991;entryDx=0;entryDy=0;entryPerimeter=0;" edge="1" parent="1" source="oJanC6ULMeYc8DPi6FuF-51" target="i28wu9x68Uowz82XUIkt-1">
          <mxGeometry relative="1" as="geometry" />
        </mxCell>
        <mxCell id="oJanC6ULMeYc8DPi6FuF-51" value="" style="shape=waypoint;sketch=0;size=6;pointerEvents=1;points=[];fillColor=default;resizable=0;rotatable=0;perimeter=centerPerimeter;snapToPoint=1;" vertex="1" parent="1">
          <mxGeometry x="830" y="1500" width="20" height="20" as="geometry" />
        </mxCell>
        <mxCell id="oJanC6ULMeYc8DPi6FuF-66" value="write s" style="shape=parallelogram;perimeter=parallelogramPerimeter;whiteSpace=wrap;html=1;fixedSize=1;" vertex="1" parent="1">
          <mxGeometry x="520" y="1200" width="120" height="60" as="geometry" />
        </mxCell>
        <mxCell id="oJanC6ULMeYc8DPi6FuF-68" style="edgeStyle=orthogonalEdgeStyle;rounded=0;orthogonalLoop=1;jettySize=auto;html=1;exitX=0.5;exitY=1;exitDx=0;exitDy=0;entryX=0.956;entryY=0.156;entryDx=0;entryDy=0;entryPerimeter=0;" edge="1" parent="1" source="oJanC6ULMeYc8DPi6FuF-66" target="oJanC6ULMeYc8DPi6FuF-33">
          <mxGeometry relative="1" as="geometry" />
        </mxCell>
        <mxCell id="oJanC6ULMeYc8DPi6FuF-69" value="write p" style="shape=parallelogram;perimeter=parallelogramPerimeter;whiteSpace=wrap;html=1;fixedSize=1;" vertex="1" parent="1">
          <mxGeometry x="680" y="1170" width="120" height="60" as="geometry" />
        </mxCell>
        <mxCell id="oJanC6ULMeYc8DPi6FuF-71" style="edgeStyle=orthogonalEdgeStyle;rounded=0;orthogonalLoop=1;jettySize=auto;html=1;entryX=0.897;entryY=0.685;entryDx=0;entryDy=0;entryPerimeter=0;" edge="1" parent="1" source="oJanC6ULMeYc8DPi6FuF-69" target="oJanC6ULMeYc8DPi6FuF-33">
          <mxGeometry relative="1" as="geometry">
            <Array as="points">
              <mxPoint x="740" y="1290" />
            </Array>
          </mxGeometry>
        </mxCell>
        <mxCell id="i28wu9x68Uowz82XUIkt-2" value="" style="edgeStyle=orthogonalEdgeStyle;rounded=0;orthogonalLoop=1;jettySize=auto;html=1;" edge="1" parent="1" source="oJanC6ULMeYc8DPi6FuF-8" target="i28wu9x68Uowz82XUIkt-1">
          <mxGeometry relative="1" as="geometry">
            <mxPoint x="620" y="648" as="sourcePoint" />
            <mxPoint x="840" y="760" as="targetPoint" />
            <Array as="points" />
          </mxGeometry>
        </mxCell>
        <mxCell id="i28wu9x68Uowz82XUIkt-3" value="false" style="edgeLabel;html=1;align=center;verticalAlign=middle;resizable=0;points=[];" vertex="1" connectable="0" parent="i28wu9x68Uowz82XUIkt-2">
          <mxGeometry x="-0.6336" y="-2" relative="1" as="geometry">
            <mxPoint as="offset" />
          </mxGeometry>
        </mxCell>
        <mxCell id="i28wu9x68Uowz82XUIkt-4" value="" style="edgeStyle=orthogonalEdgeStyle;rounded=0;orthogonalLoop=1;jettySize=auto;html=1;" edge="1" parent="1" source="i28wu9x68Uowz82XUIkt-1" target="oJanC6ULMeYc8DPi6FuF-47">
          <mxGeometry relative="1" as="geometry" />
        </mxCell>
        <mxCell id="i28wu9x68Uowz82XUIkt-1" value="" style="shape=waypoint;sketch=0;size=6;pointerEvents=1;points=[];fillColor=none;resizable=0;rotatable=0;perimeter=centerPerimeter;snapToPoint=1;" vertex="1" parent="1">
          <mxGeometry x="830" y="748" width="20" height="20" as="geometry" />
        </mxCell>
      </root>
    </mxGraphModel>
  </diagram>
  <diagram id="ZNn1HCJybSRYX5xh5--i" name="lezione3esrercizio13">
    <mxGraphModel dx="1194" dy="2753" grid="1" gridSize="10" guides="1" tooltips="1" connect="1" arrows="1" fold="1" page="1" pageScale="1" pageWidth="850" pageHeight="1100" math="0" shadow="0">
      <root>
        <mxCell id="0" />
        <mxCell id="1" parent="0" />
        <mxCell id="vn47i_Pjf-tw9lxAl4QM-1" value="&lt;p&gt;Progettare un algoritmo che verifichi se tre numeri interi positivi &lt;em&gt;x&lt;/em&gt;, &lt;em&gt;y&lt;/em&gt;, &lt;em&gt;z&amp;nbsp;&lt;/em&gt;rispettano le seguenti regole:&lt;/p&gt;&lt;br/&gt;&lt;ul&gt;&lt;li&gt;la somma di &lt;em&gt;x+y+z&lt;/em&gt; deve essere pari;&lt;/li&gt;&lt;li&gt;x deve essere divisibile per 3, y divisibile per 5 e z divisibile per 7;&lt;/li&gt;&lt;li&gt;se entrambe le condizioni sono vere, mostrare: “Regole rispettate”. Altrimenti, mostrare: “Regole non rispettate”.&lt;/li&gt;&lt;/ul&gt;" style="whiteSpace=wrap;html=1;" vertex="1" parent="1">
          <mxGeometry x="90" y="-2170" width="670" height="130" as="geometry" />
        </mxCell>
        <mxCell id="vn47i_Pjf-tw9lxAl4QM-4" value="" style="edgeStyle=orthogonalEdgeStyle;rounded=0;orthogonalLoop=1;jettySize=auto;html=1;" edge="1" parent="1" source="vn47i_Pjf-tw9lxAl4QM-2">
          <mxGeometry relative="1" as="geometry">
            <mxPoint x="420" y="-1910" as="targetPoint" />
          </mxGeometry>
        </mxCell>
        <mxCell id="vn47i_Pjf-tw9lxAl4QM-2" value="start" style="ellipse;whiteSpace=wrap;html=1;" vertex="1" parent="1">
          <mxGeometry x="380" y="-2010" width="80" height="80" as="geometry" />
        </mxCell>
        <mxCell id="vn47i_Pjf-tw9lxAl4QM-36" value="" style="edgeStyle=orthogonalEdgeStyle;rounded=0;orthogonalLoop=1;jettySize=auto;html=1;" edge="1" parent="1" source="vn47i_Pjf-tw9lxAl4QM-7" target="vn47i_Pjf-tw9lxAl4QM-35">
          <mxGeometry relative="1" as="geometry" />
        </mxCell>
        <mxCell id="vn47i_Pjf-tw9lxAl4QM-7" value="write x, y, z" style="shape=parallelogram;perimeter=parallelogramPerimeter;whiteSpace=wrap;html=1;fixedSize=1;" vertex="1" parent="1">
          <mxGeometry x="360" y="-1910" width="120" height="60" as="geometry" />
        </mxCell>
        <mxCell id="vn47i_Pjf-tw9lxAl4QM-11" value="" style="edgeStyle=orthogonalEdgeStyle;rounded=0;orthogonalLoop=1;jettySize=auto;html=1;" edge="1" parent="1" source="vn47i_Pjf-tw9lxAl4QM-8" target="vn47i_Pjf-tw9lxAl4QM-10">
          <mxGeometry relative="1" as="geometry" />
        </mxCell>
        <mxCell id="vn47i_Pjf-tw9lxAl4QM-30" value="true" style="edgeLabel;html=1;align=center;verticalAlign=middle;resizable=0;points=[];" vertex="1" connectable="0" parent="vn47i_Pjf-tw9lxAl4QM-11">
          <mxGeometry x="-0.4083" y="-4" relative="1" as="geometry">
            <mxPoint as="offset" />
          </mxGeometry>
        </mxCell>
        <mxCell id="vn47i_Pjf-tw9lxAl4QM-29" style="edgeStyle=orthogonalEdgeStyle;rounded=0;orthogonalLoop=1;jettySize=auto;html=1;entryX=0;entryY=0.5;entryDx=0;entryDy=0;" edge="1" parent="1" source="vn47i_Pjf-tw9lxAl4QM-8" target="vn47i_Pjf-tw9lxAl4QM-7">
          <mxGeometry relative="1" as="geometry">
            <Array as="points">
              <mxPoint x="310" y="-1680" />
              <mxPoint x="310" y="-1880" />
            </Array>
          </mxGeometry>
        </mxCell>
        <mxCell id="vn47i_Pjf-tw9lxAl4QM-31" value="false" style="edgeLabel;html=1;align=center;verticalAlign=middle;resizable=0;points=[];" vertex="1" connectable="0" parent="vn47i_Pjf-tw9lxAl4QM-29">
          <mxGeometry x="-0.7178" y="4" relative="1" as="geometry">
            <mxPoint as="offset" />
          </mxGeometry>
        </mxCell>
        <mxCell id="vn47i_Pjf-tw9lxAl4QM-8" value="x&amp;gt;0 and y&amp;gt;0 and z&amp;gt;0" style="rhombus;whiteSpace=wrap;html=1;" vertex="1" parent="1">
          <mxGeometry x="380" y="-1721" width="80" height="80" as="geometry" />
        </mxCell>
        <mxCell id="vn47i_Pjf-tw9lxAl4QM-13" value="" style="edgeStyle=orthogonalEdgeStyle;rounded=0;orthogonalLoop=1;jettySize=auto;html=1;" edge="1" parent="1" source="vn47i_Pjf-tw9lxAl4QM-10" target="vn47i_Pjf-tw9lxAl4QM-12">
          <mxGeometry relative="1" as="geometry" />
        </mxCell>
        <mxCell id="vn47i_Pjf-tw9lxAl4QM-10" value="s = x+y+z" style="whiteSpace=wrap;html=1;" vertex="1" parent="1">
          <mxGeometry x="518" y="-1630" width="120" height="60" as="geometry" />
        </mxCell>
        <mxCell id="vn47i_Pjf-tw9lxAl4QM-15" value="" style="edgeStyle=orthogonalEdgeStyle;rounded=0;orthogonalLoop=1;jettySize=auto;html=1;" edge="1" parent="1" source="vn47i_Pjf-tw9lxAl4QM-12" target="vn47i_Pjf-tw9lxAl4QM-14">
          <mxGeometry relative="1" as="geometry" />
        </mxCell>
        <mxCell id="vn47i_Pjf-tw9lxAl4QM-32" value="true" style="edgeLabel;html=1;align=center;verticalAlign=middle;resizable=0;points=[];" vertex="1" connectable="0" parent="vn47i_Pjf-tw9lxAl4QM-15">
          <mxGeometry x="-0.3446" y="-2" relative="1" as="geometry">
            <mxPoint as="offset" />
          </mxGeometry>
        </mxCell>
        <mxCell id="vn47i_Pjf-tw9lxAl4QM-19" value="" style="edgeStyle=orthogonalEdgeStyle;rounded=0;orthogonalLoop=1;jettySize=auto;html=1;" edge="1" parent="1" source="vn47i_Pjf-tw9lxAl4QM-12" target="vn47i_Pjf-tw9lxAl4QM-18">
          <mxGeometry relative="1" as="geometry" />
        </mxCell>
        <mxCell id="vn47i_Pjf-tw9lxAl4QM-33" value="false" style="edgeLabel;html=1;align=center;verticalAlign=middle;resizable=0;points=[];" vertex="1" connectable="0" parent="vn47i_Pjf-tw9lxAl4QM-19">
          <mxGeometry x="-0.3782" y="2" relative="1" as="geometry">
            <mxPoint as="offset" />
          </mxGeometry>
        </mxCell>
        <mxCell id="vn47i_Pjf-tw9lxAl4QM-12" value="s%2==0 and x%3==0 and y%5==0 and z%7==0" style="rhombus;whiteSpace=wrap;html=1;direction=west;" vertex="1" parent="1">
          <mxGeometry x="538" y="-1535" width="80" height="80" as="geometry" />
        </mxCell>
        <mxCell id="vn47i_Pjf-tw9lxAl4QM-17" value="" style="edgeStyle=orthogonalEdgeStyle;rounded=0;orthogonalLoop=1;jettySize=auto;html=1;" edge="1" parent="1" source="vn47i_Pjf-tw9lxAl4QM-14" target="vn47i_Pjf-tw9lxAl4QM-16">
          <mxGeometry relative="1" as="geometry" />
        </mxCell>
        <mxCell id="vn47i_Pjf-tw9lxAl4QM-14" value="write s" style="shape=parallelogram;perimeter=parallelogramPerimeter;whiteSpace=wrap;html=1;fixedSize=1;" vertex="1" parent="1">
          <mxGeometry x="670" y="-1430" width="120" height="60" as="geometry" />
        </mxCell>
        <mxCell id="vn47i_Pjf-tw9lxAl4QM-23" value="" style="edgeStyle=orthogonalEdgeStyle;rounded=0;orthogonalLoop=1;jettySize=auto;html=1;" edge="1" parent="1" source="vn47i_Pjf-tw9lxAl4QM-16" target="vn47i_Pjf-tw9lxAl4QM-22">
          <mxGeometry relative="1" as="geometry" />
        </mxCell>
        <mxCell id="vn47i_Pjf-tw9lxAl4QM-16" value="write &quot;Regole rispettate&quot;" style="shape=parallelogram;perimeter=parallelogramPerimeter;whiteSpace=wrap;html=1;fixedSize=1;" vertex="1" parent="1">
          <mxGeometry x="670" y="-1330" width="120" height="60" as="geometry" />
        </mxCell>
        <mxCell id="vn47i_Pjf-tw9lxAl4QM-21" value="" style="edgeStyle=orthogonalEdgeStyle;rounded=0;orthogonalLoop=1;jettySize=auto;html=1;" edge="1" parent="1" source="vn47i_Pjf-tw9lxAl4QM-18" target="vn47i_Pjf-tw9lxAl4QM-20">
          <mxGeometry relative="1" as="geometry" />
        </mxCell>
        <mxCell id="vn47i_Pjf-tw9lxAl4QM-18" value="write &quot;Regole non rispettate&quot;" style="shape=parallelogram;perimeter=parallelogramPerimeter;whiteSpace=wrap;html=1;fixedSize=1;" vertex="1" parent="1">
          <mxGeometry x="350" y="-1430" width="120" height="60" as="geometry" />
        </mxCell>
        <mxCell id="vn47i_Pjf-tw9lxAl4QM-25" value="" style="edgeStyle=orthogonalEdgeStyle;rounded=0;orthogonalLoop=1;jettySize=auto;html=1;" edge="1" parent="1" source="vn47i_Pjf-tw9lxAl4QM-20" target="vn47i_Pjf-tw9lxAl4QM-24">
          <mxGeometry relative="1" as="geometry" />
        </mxCell>
        <mxCell id="vn47i_Pjf-tw9lxAl4QM-20" value="" style="shape=waypoint;sketch=0;size=6;pointerEvents=1;points=[];fillColor=default;resizable=0;rotatable=0;perimeter=centerPerimeter;snapToPoint=1;" vertex="1" parent="1">
          <mxGeometry x="400" y="-1241" width="20" height="20" as="geometry" />
        </mxCell>
        <mxCell id="vn47i_Pjf-tw9lxAl4QM-22" value="" style="shape=waypoint;sketch=0;size=6;pointerEvents=1;points=[];fillColor=default;resizable=0;rotatable=0;perimeter=centerPerimeter;snapToPoint=1;" vertex="1" parent="1">
          <mxGeometry x="720" y="-1241" width="20" height="20" as="geometry" />
        </mxCell>
        <mxCell id="vn47i_Pjf-tw9lxAl4QM-28" value="" style="edgeStyle=orthogonalEdgeStyle;rounded=0;orthogonalLoop=1;jettySize=auto;html=1;" edge="1" parent="1" source="vn47i_Pjf-tw9lxAl4QM-24" target="vn47i_Pjf-tw9lxAl4QM-27">
          <mxGeometry relative="1" as="geometry" />
        </mxCell>
        <mxCell id="vn47i_Pjf-tw9lxAl4QM-24" value="" style="shape=waypoint;sketch=0;size=6;pointerEvents=1;points=[];fillColor=default;resizable=0;rotatable=0;perimeter=centerPerimeter;snapToPoint=1;" vertex="1" parent="1">
          <mxGeometry x="568" y="-1241" width="20" height="20" as="geometry" />
        </mxCell>
        <mxCell id="vn47i_Pjf-tw9lxAl4QM-26" style="edgeStyle=orthogonalEdgeStyle;rounded=0;orthogonalLoop=1;jettySize=auto;html=1;entryX=1.1;entryY=0.55;entryDx=0;entryDy=0;entryPerimeter=0;" edge="1" parent="1" source="vn47i_Pjf-tw9lxAl4QM-22" target="vn47i_Pjf-tw9lxAl4QM-24">
          <mxGeometry relative="1" as="geometry" />
        </mxCell>
        <mxCell id="vn47i_Pjf-tw9lxAl4QM-27" value="end" style="ellipse;whiteSpace=wrap;html=1;sketch=0;pointerEvents=1;resizable=0;" vertex="1" parent="1">
          <mxGeometry x="538" y="-1171" width="80" height="80" as="geometry" />
        </mxCell>
        <mxCell id="vn47i_Pjf-tw9lxAl4QM-37" value="" style="edgeStyle=orthogonalEdgeStyle;rounded=0;orthogonalLoop=1;jettySize=auto;html=1;" edge="1" parent="1" source="vn47i_Pjf-tw9lxAl4QM-35" target="vn47i_Pjf-tw9lxAl4QM-8">
          <mxGeometry relative="1" as="geometry" />
        </mxCell>
        <mxCell id="vn47i_Pjf-tw9lxAl4QM-35" value="s = 0" style="whiteSpace=wrap;html=1;" vertex="1" parent="1">
          <mxGeometry x="360" y="-1816" width="120" height="60" as="geometry" />
        </mxCell>
      </root>
    </mxGraphModel>
  </diagram>
  <diagram id="yHwUiypOZzBud7QE4Z0l" name="lezione3esercizio14">
    <mxGraphModel dx="1142" dy="553" grid="1" gridSize="10" guides="1" tooltips="1" connect="1" arrows="1" fold="1" page="1" pageScale="1" pageWidth="850" pageHeight="1100" math="0" shadow="0">
      <root>
        <mxCell id="0" />
        <mxCell id="1" parent="0" />
        <mxCell id="wfPdCsf9vsOon-gXVdHj-1" value="&lt;p&gt;Progettare un algoritmo che simuli un gioco basato sul lancio di due dadi virtuali a sei facce &lt;span class=&quot;katex&quot;&gt;&lt;span class=&quot;katex-mathml&quot;&gt;D1&lt;/span&gt;&lt;/span&gt;&amp;nbsp;e &lt;span class=&quot;katex&quot;&gt;&lt;span class=&quot;katex-mathml&quot;&gt;D2. L&#39;algoritmo deve:&lt;/span&gt;&lt;/span&gt;&lt;/p&gt;&lt;br&gt;&lt;ol&gt;&lt;li&gt;simulare il lancio dei due dadi,&lt;/li&gt;&lt;li&gt;calcolare la somma dei valori ottenuti,&lt;/li&gt;&lt;li&gt;stabilire le seguenti regole:&lt;br&gt;&lt;ul&gt;&lt;li&gt;se entrambi i dadi mostrano numeri pari e la somma è maggiore di 8 il giocatore vince e il punteggio è impostato direttamente a 100.&lt;/li&gt;&lt;li&gt;se uno dei dadi mostra 6 o la somma è uguale a 7, il giocatore ottiene un premio minore. +10&lt;br&gt;&lt;/li&gt;&lt;li&gt;in tutti gli altri casi, il giocatore perde. 0&lt;br&gt;&lt;/li&gt;&lt;/ul&gt;&lt;br&gt;&lt;/li&gt;&lt;li&gt;Mostrare il risultato del gioco e il punteggio ottenuto.&lt;/li&gt;&lt;/ol&gt;" style="rounded=0;whiteSpace=wrap;html=1;" vertex="1" parent="1">
          <mxGeometry x="78" y="30" width="695" height="180" as="geometry" />
        </mxCell>
        <mxCell id="wfPdCsf9vsOon-gXVdHj-8" value="" style="edgeStyle=orthogonalEdgeStyle;rounded=0;orthogonalLoop=1;jettySize=auto;html=1;" edge="1" parent="1" source="wfPdCsf9vsOon-gXVdHj-6" target="wfPdCsf9vsOon-gXVdHj-7">
          <mxGeometry relative="1" as="geometry" />
        </mxCell>
        <mxCell id="wfPdCsf9vsOon-gXVdHj-6" value="start" style="ellipse;whiteSpace=wrap;html=1;aspect=fixed;" vertex="1" parent="1">
          <mxGeometry x="400" y="240" width="80" height="80" as="geometry" />
        </mxCell>
        <mxCell id="wfPdCsf9vsOon-gXVdHj-47" value="" style="edgeStyle=orthogonalEdgeStyle;rounded=0;orthogonalLoop=1;jettySize=auto;html=1;" edge="1" parent="1" source="wfPdCsf9vsOon-gXVdHj-7" target="wfPdCsf9vsOon-gXVdHj-46">
          <mxGeometry relative="1" as="geometry" />
        </mxCell>
        <mxCell id="wfPdCsf9vsOon-gXVdHj-7" value="read D1, read D2" style="shape=parallelogram;perimeter=parallelogramPerimeter;whiteSpace=wrap;html=1;fixedSize=1;" vertex="1" parent="1">
          <mxGeometry x="380" y="360" width="120" height="60" as="geometry" />
        </mxCell>
        <mxCell id="wfPdCsf9vsOon-gXVdHj-11" style="edgeStyle=orthogonalEdgeStyle;rounded=0;orthogonalLoop=1;jettySize=auto;html=1;entryX=0;entryY=0.5;entryDx=0;entryDy=0;" edge="1" parent="1" source="wfPdCsf9vsOon-gXVdHj-9" target="wfPdCsf9vsOon-gXVdHj-7">
          <mxGeometry relative="1" as="geometry">
            <Array as="points">
              <mxPoint x="340" y="600" />
              <mxPoint x="340" y="390" />
            </Array>
          </mxGeometry>
        </mxCell>
        <mxCell id="r1hQm7Oeo6eDr8mT9pLD-6" value="false" style="edgeLabel;html=1;align=center;verticalAlign=middle;resizable=0;points=[];" vertex="1" connectable="0" parent="wfPdCsf9vsOon-gXVdHj-11">
          <mxGeometry x="-0.1062" y="-1" relative="1" as="geometry">
            <mxPoint as="offset" />
          </mxGeometry>
        </mxCell>
        <mxCell id="wfPdCsf9vsOon-gXVdHj-13" value="" style="edgeStyle=orthogonalEdgeStyle;rounded=0;orthogonalLoop=1;jettySize=auto;html=1;" edge="1" parent="1" source="wfPdCsf9vsOon-gXVdHj-9" target="wfPdCsf9vsOon-gXVdHj-12">
          <mxGeometry relative="1" as="geometry" />
        </mxCell>
        <mxCell id="r1hQm7Oeo6eDr8mT9pLD-5" value="true" style="edgeLabel;html=1;align=center;verticalAlign=middle;resizable=0;points=[];" vertex="1" connectable="0" parent="wfPdCsf9vsOon-gXVdHj-13">
          <mxGeometry x="-0.3416" y="-2" relative="1" as="geometry">
            <mxPoint as="offset" />
          </mxGeometry>
        </mxCell>
        <mxCell id="wfPdCsf9vsOon-gXVdHj-9" value="&lt;div&gt;D1&amp;gt;0&amp;nbsp;&lt;/div&gt;&lt;div&gt;and D2&amp;gt;0&lt;/div&gt;" style="rhombus;whiteSpace=wrap;html=1;" vertex="1" parent="1">
          <mxGeometry x="400" y="560" width="80" height="80" as="geometry" />
        </mxCell>
        <mxCell id="wfPdCsf9vsOon-gXVdHj-15" value="" style="edgeStyle=orthogonalEdgeStyle;rounded=0;orthogonalLoop=1;jettySize=auto;html=1;" edge="1" parent="1" source="wfPdCsf9vsOon-gXVdHj-12" target="wfPdCsf9vsOon-gXVdHj-14">
          <mxGeometry relative="1" as="geometry" />
        </mxCell>
        <mxCell id="wfPdCsf9vsOon-gXVdHj-12" value="s = D1 + D2" style="whiteSpace=wrap;html=1;" vertex="1" parent="1">
          <mxGeometry x="540" y="641" width="120" height="60" as="geometry" />
        </mxCell>
        <mxCell id="wfPdCsf9vsOon-gXVdHj-17" value="" style="edgeStyle=orthogonalEdgeStyle;rounded=0;orthogonalLoop=1;jettySize=auto;html=1;" edge="1" parent="1" source="wfPdCsf9vsOon-gXVdHj-14" target="wfPdCsf9vsOon-gXVdHj-16">
          <mxGeometry relative="1" as="geometry" />
        </mxCell>
        <mxCell id="r1hQm7Oeo6eDr8mT9pLD-1" value="true" style="edgeLabel;html=1;align=center;verticalAlign=middle;resizable=0;points=[];" vertex="1" connectable="0" parent="wfPdCsf9vsOon-gXVdHj-17">
          <mxGeometry x="-0.3988" y="2" relative="1" as="geometry">
            <mxPoint as="offset" />
          </mxGeometry>
        </mxCell>
        <mxCell id="wfPdCsf9vsOon-gXVdHj-19" value="" style="edgeStyle=orthogonalEdgeStyle;rounded=0;orthogonalLoop=1;jettySize=auto;html=1;" edge="1" parent="1" source="wfPdCsf9vsOon-gXVdHj-14" target="wfPdCsf9vsOon-gXVdHj-18">
          <mxGeometry relative="1" as="geometry" />
        </mxCell>
        <mxCell id="r1hQm7Oeo6eDr8mT9pLD-2" value="false" style="edgeLabel;html=1;align=center;verticalAlign=middle;resizable=0;points=[];" vertex="1" connectable="0" parent="wfPdCsf9vsOon-gXVdHj-19">
          <mxGeometry x="-0.4356" y="1" relative="1" as="geometry">
            <mxPoint as="offset" />
          </mxGeometry>
        </mxCell>
        <mxCell id="wfPdCsf9vsOon-gXVdHj-14" value="D1%2==0 and D2%2==0 and s&amp;gt;8" style="rhombus;whiteSpace=wrap;html=1;" vertex="1" parent="1">
          <mxGeometry x="560" y="727" width="80" height="80" as="geometry" />
        </mxCell>
        <mxCell id="wfPdCsf9vsOon-gXVdHj-21" value="" style="edgeStyle=orthogonalEdgeStyle;rounded=0;orthogonalLoop=1;jettySize=auto;html=1;" edge="1" parent="1" source="wfPdCsf9vsOon-gXVdHj-16" target="wfPdCsf9vsOon-gXVdHj-20">
          <mxGeometry relative="1" as="geometry" />
        </mxCell>
        <mxCell id="wfPdCsf9vsOon-gXVdHj-16" value="write &quot;You win&quot;" style="shape=parallelogram;perimeter=parallelogramPerimeter;whiteSpace=wrap;html=1;fixedSize=1;" vertex="1" parent="1">
          <mxGeometry x="700" y="820" width="120" height="60" as="geometry" />
        </mxCell>
        <mxCell id="wfPdCsf9vsOon-gXVdHj-23" value="" style="edgeStyle=orthogonalEdgeStyle;rounded=0;orthogonalLoop=1;jettySize=auto;html=1;" edge="1" parent="1" source="wfPdCsf9vsOon-gXVdHj-18" target="wfPdCsf9vsOon-gXVdHj-22">
          <mxGeometry relative="1" as="geometry" />
        </mxCell>
        <mxCell id="r1hQm7Oeo6eDr8mT9pLD-3" value="true" style="edgeLabel;html=1;align=center;verticalAlign=middle;resizable=0;points=[];" vertex="1" connectable="0" parent="wfPdCsf9vsOon-gXVdHj-23">
          <mxGeometry x="-0.4111" y="1" relative="1" as="geometry">
            <mxPoint as="offset" />
          </mxGeometry>
        </mxCell>
        <mxCell id="wfPdCsf9vsOon-gXVdHj-27" value="" style="edgeStyle=orthogonalEdgeStyle;rounded=0;orthogonalLoop=1;jettySize=auto;html=1;" edge="1" parent="1" source="wfPdCsf9vsOon-gXVdHj-18" target="wfPdCsf9vsOon-gXVdHj-26">
          <mxGeometry relative="1" as="geometry" />
        </mxCell>
        <mxCell id="r1hQm7Oeo6eDr8mT9pLD-4" value="false" style="edgeLabel;html=1;align=center;verticalAlign=middle;resizable=0;points=[];" vertex="1" connectable="0" parent="wfPdCsf9vsOon-gXVdHj-27">
          <mxGeometry x="-0.4138" y="2" relative="1" as="geometry">
            <mxPoint as="offset" />
          </mxGeometry>
        </mxCell>
        <mxCell id="wfPdCsf9vsOon-gXVdHj-18" value="D1==6 or D2==6 or s==7" style="rhombus;whiteSpace=wrap;html=1;" vertex="1" parent="1">
          <mxGeometry x="400" y="810" width="80" height="80" as="geometry" />
        </mxCell>
        <mxCell id="wfPdCsf9vsOon-gXVdHj-33" value="" style="edgeStyle=orthogonalEdgeStyle;rounded=0;orthogonalLoop=1;jettySize=auto;html=1;" edge="1" parent="1" source="wfPdCsf9vsOon-gXVdHj-20" target="wfPdCsf9vsOon-gXVdHj-32">
          <mxGeometry relative="1" as="geometry" />
        </mxCell>
        <mxCell id="wfPdCsf9vsOon-gXVdHj-20" value="punti = punti + 100" style="whiteSpace=wrap;html=1;" vertex="1" parent="1">
          <mxGeometry x="700" y="910" width="120" height="60" as="geometry" />
        </mxCell>
        <mxCell id="wfPdCsf9vsOon-gXVdHj-31" value="" style="edgeStyle=orthogonalEdgeStyle;rounded=0;orthogonalLoop=1;jettySize=auto;html=1;" edge="1" parent="1" source="wfPdCsf9vsOon-gXVdHj-22" target="wfPdCsf9vsOon-gXVdHj-30">
          <mxGeometry relative="1" as="geometry" />
        </mxCell>
        <mxCell id="wfPdCsf9vsOon-gXVdHj-22" value="punti = punti + 10" style="whiteSpace=wrap;html=1;" vertex="1" parent="1">
          <mxGeometry x="540" y="910" width="120" height="60" as="geometry" />
        </mxCell>
        <mxCell id="wfPdCsf9vsOon-gXVdHj-29" value="" style="edgeStyle=orthogonalEdgeStyle;rounded=0;orthogonalLoop=1;jettySize=auto;html=1;" edge="1" parent="1" source="wfPdCsf9vsOon-gXVdHj-26" target="wfPdCsf9vsOon-gXVdHj-28">
          <mxGeometry relative="1" as="geometry" />
        </mxCell>
        <mxCell id="wfPdCsf9vsOon-gXVdHj-26" value="write punti" style="shape=parallelogram;perimeter=parallelogramPerimeter;whiteSpace=wrap;html=1;fixedSize=1;" vertex="1" parent="1">
          <mxGeometry x="220" y="904" width="120" height="60" as="geometry" />
        </mxCell>
        <mxCell id="wfPdCsf9vsOon-gXVdHj-37" value="" style="edgeStyle=orthogonalEdgeStyle;rounded=0;orthogonalLoop=1;jettySize=auto;html=1;" edge="1" parent="1" source="wfPdCsf9vsOon-gXVdHj-28" target="wfPdCsf9vsOon-gXVdHj-36">
          <mxGeometry relative="1" as="geometry" />
        </mxCell>
        <mxCell id="wfPdCsf9vsOon-gXVdHj-28" value="write &quot;You lose&quot;" style="shape=parallelogram;perimeter=parallelogramPerimeter;whiteSpace=wrap;html=1;fixedSize=1;" vertex="1" parent="1">
          <mxGeometry x="220" y="988" width="120" height="60" as="geometry" />
        </mxCell>
        <mxCell id="wfPdCsf9vsOon-gXVdHj-40" value="" style="edgeStyle=orthogonalEdgeStyle;rounded=0;orthogonalLoop=1;jettySize=auto;html=1;" edge="1" parent="1" source="wfPdCsf9vsOon-gXVdHj-30" target="wfPdCsf9vsOon-gXVdHj-39">
          <mxGeometry relative="1" as="geometry" />
        </mxCell>
        <mxCell id="wfPdCsf9vsOon-gXVdHj-30" value="write punti" style="shape=parallelogram;perimeter=parallelogramPerimeter;whiteSpace=wrap;html=1;fixedSize=1;" vertex="1" parent="1">
          <mxGeometry x="540" y="990" width="120" height="60" as="geometry" />
        </mxCell>
        <mxCell id="wfPdCsf9vsOon-gXVdHj-35" value="" style="edgeStyle=orthogonalEdgeStyle;rounded=0;orthogonalLoop=1;jettySize=auto;html=1;" edge="1" parent="1" source="wfPdCsf9vsOon-gXVdHj-32">
          <mxGeometry relative="1" as="geometry">
            <mxPoint x="760" y="1080" as="targetPoint" />
          </mxGeometry>
        </mxCell>
        <mxCell id="wfPdCsf9vsOon-gXVdHj-32" value="write punti" style="shape=parallelogram;perimeter=parallelogramPerimeter;whiteSpace=wrap;html=1;fixedSize=1;" vertex="1" parent="1">
          <mxGeometry x="700" y="990" width="120" height="60" as="geometry" />
        </mxCell>
        <mxCell id="wfPdCsf9vsOon-gXVdHj-34" value="end" style="ellipse;whiteSpace=wrap;html=1;" vertex="1" parent="1">
          <mxGeometry x="720" y="1120" width="80" height="80" as="geometry" />
        </mxCell>
        <mxCell id="wfPdCsf9vsOon-gXVdHj-38" style="edgeStyle=orthogonalEdgeStyle;rounded=0;orthogonalLoop=1;jettySize=auto;html=1;" edge="1" parent="1" source="wfPdCsf9vsOon-gXVdHj-36">
          <mxGeometry relative="1" as="geometry">
            <mxPoint x="760" y="1080" as="targetPoint" />
            <Array as="points">
              <mxPoint x="720" y="1080" />
            </Array>
          </mxGeometry>
        </mxCell>
        <mxCell id="wfPdCsf9vsOon-gXVdHj-36" value="" style="shape=waypoint;sketch=0;size=6;pointerEvents=1;points=[];fillColor=default;resizable=0;rotatable=0;perimeter=centerPerimeter;snapToPoint=1;" vertex="1" parent="1">
          <mxGeometry x="270" y="1070" width="20" height="20" as="geometry" />
        </mxCell>
        <mxCell id="wfPdCsf9vsOon-gXVdHj-42" value="" style="edgeStyle=orthogonalEdgeStyle;rounded=0;orthogonalLoop=1;jettySize=auto;html=1;" edge="1" parent="1" source="wfPdCsf9vsOon-gXVdHj-39" target="wfPdCsf9vsOon-gXVdHj-41">
          <mxGeometry relative="1" as="geometry" />
        </mxCell>
        <mxCell id="wfPdCsf9vsOon-gXVdHj-39" value="" style="shape=waypoint;sketch=0;size=6;pointerEvents=1;points=[];fillColor=default;resizable=0;rotatable=0;perimeter=centerPerimeter;snapToPoint=1;" vertex="1" parent="1">
          <mxGeometry x="590" y="1177" width="20" height="20" as="geometry" />
        </mxCell>
        <mxCell id="wfPdCsf9vsOon-gXVdHj-44" value="" style="edgeStyle=orthogonalEdgeStyle;rounded=0;orthogonalLoop=1;jettySize=auto;html=1;" edge="1" parent="1" source="wfPdCsf9vsOon-gXVdHj-41" target="wfPdCsf9vsOon-gXVdHj-43">
          <mxGeometry relative="1" as="geometry" />
        </mxCell>
        <mxCell id="wfPdCsf9vsOon-gXVdHj-41" value="" style="shape=waypoint;sketch=0;size=6;pointerEvents=1;points=[];fillColor=default;resizable=0;rotatable=0;perimeter=centerPerimeter;snapToPoint=1;" vertex="1" parent="1">
          <mxGeometry x="162" y="1177" width="20" height="20" as="geometry" />
        </mxCell>
        <mxCell id="wfPdCsf9vsOon-gXVdHj-45" style="edgeStyle=orthogonalEdgeStyle;rounded=0;orthogonalLoop=1;jettySize=auto;html=1;entryX=0;entryY=0.25;entryDx=0;entryDy=0;" edge="1" parent="1">
          <mxGeometry relative="1" as="geometry">
            <mxPoint x="172" y="381" as="sourcePoint" />
            <mxPoint x="393.8461538461538" y="379.46153846153845" as="targetPoint" />
            <Array as="points">
              <mxPoint x="172" y="382" />
              <mxPoint x="394" y="382" />
            </Array>
          </mxGeometry>
        </mxCell>
        <mxCell id="wfPdCsf9vsOon-gXVdHj-43" value="" style="shape=waypoint;sketch=0;size=6;pointerEvents=1;points=[];fillColor=default;resizable=0;rotatable=0;perimeter=centerPerimeter;snapToPoint=1;" vertex="1" parent="1">
          <mxGeometry x="162" y="370" width="20" height="20" as="geometry" />
        </mxCell>
        <mxCell id="wfPdCsf9vsOon-gXVdHj-48" value="" style="edgeStyle=orthogonalEdgeStyle;rounded=0;orthogonalLoop=1;jettySize=auto;html=1;" edge="1" parent="1" source="wfPdCsf9vsOon-gXVdHj-46" target="wfPdCsf9vsOon-gXVdHj-9">
          <mxGeometry relative="1" as="geometry" />
        </mxCell>
        <mxCell id="wfPdCsf9vsOon-gXVdHj-46" value="s = 0, punti = 0" style="whiteSpace=wrap;html=1;" vertex="1" parent="1">
          <mxGeometry x="380" y="455" width="120" height="60" as="geometry" />
        </mxCell>
        <mxCell id="g8TMdVT5zp6teLoxT2Bh-2" value="" style="edgeStyle=orthogonalEdgeStyle;rounded=0;orthogonalLoop=1;jettySize=auto;html=1;" edge="1" parent="1" source="g8TMdVT5zp6teLoxT2Bh-1" target="wfPdCsf9vsOon-gXVdHj-34">
          <mxGeometry relative="1" as="geometry" />
        </mxCell>
        <mxCell id="g8TMdVT5zp6teLoxT2Bh-1" value="" style="shape=waypoint;sketch=0;size=6;pointerEvents=1;points=[];fillColor=none;resizable=0;rotatable=0;perimeter=centerPerimeter;snapToPoint=1;" vertex="1" parent="1">
          <mxGeometry x="750" y="1070" width="20" height="20" as="geometry" />
        </mxCell>
      </root>
    </mxGraphModel>
  </diagram>
  <diagram id="W56N6A8ipvIdLun0cHNf" name="Page-11">
    <mxGraphModel grid="1" page="1" gridSize="10" guides="1" tooltips="1" connect="1" arrows="1" fold="1" pageScale="1" pageWidth="850" pageHeight="1100" math="0" shadow="0">
      <root>
        <mxCell id="0" />
        <mxCell id="1" parent="0" />
      </root>
    </mxGraphModel>
  </diagram>
</mxfile>
